<?xml version="1.0" encoding="UTF-8"?>
<svg version="1.1" xmlns="http://www.w3.org/2000/svg" width="463" height="539">
<path d="M0 0 C152.79 0 305.58 0 463 0 C463 177.87 463 355.74 463 539 C310.21 539 157.42 539 0 539 C0 361.13 0 183.26 0 0 Z " fill="#000000" transform="translate(0,0)"/>
<path d="M0 0 C0.72517484 0.0015486 1.45034968 0.0030972 2.19749951 0.00469273 C2.96253395 0.00242718 3.72756839 0.00016162 4.51578569 -0.00217259 C7.09909741 -0.00854164 9.68235705 -0.00768137 12.26567578 -0.00685817 C14.10990459 -0.00984792 15.95413277 -0.01325002 17.79836011 -0.01703578 C22.82327308 -0.02590041 27.84816904 -0.02821497 32.87308908 -0.02885157 C37.06293322 -0.02979894 41.25277337 -0.03347539 45.44261599 -0.03702366 C55.32732286 -0.04517819 65.21202062 -0.04760706 75.09673047 -0.04689723 C85.30146282 -0.04629671 95.50614225 -0.05684108 105.71086121 -0.0726409 C114.46248197 -0.08570929 123.21408543 -0.0910814 131.96571589 -0.09044182 C137.19675116 -0.09018656 142.42773949 -0.09305334 147.65876508 -0.10361987 C152.58019536 -0.11328863 157.50153371 -0.11338842 162.4229672 -0.10610324 C164.2301585 -0.10505576 166.03735549 -0.10742996 167.84453702 -0.1134637 C170.3104444 -0.12116376 172.77603276 -0.11655197 175.24193311 -0.10883266 C175.95818506 -0.11397622 176.67443701 -0.11911978 177.41239357 -0.12441921 C181.40579966 -0.09677032 184.35989547 0.46319239 187.9736836 2.1384055 C190.40179271 2.7207243 192.84038588 3.26053121 195.2861836 3.7634055 C196.54044141 4.02379613 197.79469922 4.28418675 199.08696485 4.552468 C200.03958203 4.74582738 200.99219922 4.93918675 201.9736836 5.1384055 C201.9736836 5.7984055 201.9736836 6.4584055 201.9736836 7.1384055 C202.9636836 7.2621555 202.9636836 7.2621555 203.9736836 7.3884055 C212.15354148 9.43336997 216.80088437 13.57807583 222.4814961 19.60324925 C224.95485139 22.22764399 224.95485139 22.22764399 227.98540235 24.50168675 C231.39092089 27.50655606 233.41900401 30.48787028 235.6611836 34.3884055 C236.04911084 35.0500974 236.43703809 35.71178929 236.83672071 36.39353245 C240.29861804 42.43800963 242.9736836 48.02067599 242.9736836 55.1384055 C243.6336836 55.1384055 244.2936836 55.1384055 244.9736836 55.1384055 C247.81715944 69.96510099 248.38256478 82.87862784 242.9736836 97.1384055 C242.71200391 97.89766331 242.45032422 98.65692113 242.18071485 99.43918675 C240.73789331 103.54445244 238.93977871 107.40748594 236.9346211 111.25949925 C236.08784395 112.91518952 235.33527908 114.61834323 234.5986836 116.3259055 C232.60402107 119.77820602 230.02160086 121.59847445 226.9736836 124.1384055 C226.4993086 125.1284055 226.0249336 126.1184055 225.5361836 127.1384055 C223.72739064 130.61128797 221.92529096 131.8995508 218.6924336 133.96262425 C216.93231728 135.08364117 216.93231728 135.08364117 215.5361836 136.614968 C213.67346217 138.43112139 211.74617442 139.5646731 209.4736836 140.8259055 C208.7002461 141.26289769 207.9268086 141.69988988 207.1299336 142.15012425 C204.9736836 143.1384055 204.9736836 143.1384055 201.9736836 143.1384055 C201.9736836 143.7984055 201.9736836 144.4584055 201.9736836 145.1384055 C200.6536836 145.1384055 199.3336836 145.1384055 197.9736836 145.1384055 C197.9736836 145.7984055 197.9736836 146.4584055 197.9736836 147.1384055 C188.909504 150.09411624 179.71680036 150.28575739 170.24736524 150.32785863 C168.71621579 150.34029858 168.71621579 150.34029858 167.15413404 150.35298985 C164.95693998 150.37027286 162.75972871 150.38547067 160.56250691 150.39876622 C157.08692446 150.41994134 153.61142946 150.44694591 150.13589978 150.47544163 C141.51424568 150.54496872 132.89252974 150.60479239 124.27080274 150.66446751 C116.96317543 150.71536653 109.6555981 150.77014409 102.34804082 150.83028477 C98.92070357 150.85686956 95.49336156 150.87766827 92.06598401 150.8982932 C89.97540043 150.91488946 87.88481901 150.9317607 85.79424024 150.94895238 C84.83890897 150.95313679 83.8835777 150.95732121 82.899297 150.96163243 C82.02613843 150.96997609 81.15297986 150.97831975 80.25336194 150.98691624 C79.11553313 150.99464684 79.11553313 150.99464684 77.95471787 151.00253361 C75.76183748 151.06981399 75.76183748 151.06981399 72.9736836 152.1384055 C71.45345024 154.32503823 71.45345024 154.32503823 70.0908711 157.05637425 C69.56364453 158.0637766 69.03641797 159.07117894 68.49321485 160.10910863 C67.95051953 161.1706516 67.40782422 162.23219456 66.8486836 163.3259055 C66.29825391 164.36811253 65.74782422 165.41031956 65.18071485 166.48410863 C62.50487909 171.65498042 60.95200399 175.26848314 59.9736836 181.1384055 C71.8536836 181.1384055 83.7336836 181.1384055 95.9736836 181.1384055 C94.9736836 185.1384055 94.9736836 185.1384055 93.9736836 187.1384055 C93.3136836 187.1384055 92.6536836 187.1384055 91.9736836 187.1384055 C91.9736836 187.7984055 91.9736836 188.4584055 91.9736836 189.1384055 C91.3136836 189.1384055 90.6536836 189.1384055 89.9736836 189.1384055 C89.8911836 189.6952805 89.8086836 190.2521555 89.7236836 190.8259055 C88.74906851 193.83096868 86.9654389 195.71095372 84.9736836 198.1384055 C84.6436836 199.1284055 84.3136836 200.1184055 83.9736836 201.1384055 C81.07585396 204.42783374 79.23539065 206.22518256 74.9736836 207.1384055 C74.6436836 208.1284055 74.3136836 209.1184055 73.9736836 210.1384055 C73.3136836 210.1384055 72.6536836 210.1384055 71.9736836 210.1384055 C71.7055586 210.9015305 71.4374336 211.6646555 71.1611836 212.4509055 C69.98842868 215.10503504 69.01686998 216.17694658 66.9736836 218.1384055 C66.5405586 218.891218 66.1074336 219.6440305 65.6611836 220.4196555 C63.26068134 224.28713135 60.16021147 227.35124977 57.03227735 230.6384055 C54.98705752 233.12216393 54.14547532 235.18471562 52.9736836 238.1384055 C51.28227735 239.833718 51.28227735 239.833718 49.4111836 241.2634055 C46.75751954 243.30468555 46.07296264 243.84056836 44.9736836 247.1384055 C44.3136836 247.1384055 43.6536836 247.1384055 42.9736836 247.1384055 C42.6436836 248.1284055 42.3136836 249.1184055 41.9736836 250.1384055 C41.3136836 250.1384055 40.6536836 250.1384055 39.9736836 250.1384055 C39.6849336 250.8602805 39.3961836 251.5821555 39.0986836 252.3259055 C38.7274336 253.2540305 38.3561836 254.1821555 37.9736836 255.1384055 C37.7674336 255.9221555 37.5611836 256.7059055 37.3486836 257.5134055 C35.92884635 260.22400388 34.86811109 261.18091758 32.5361836 263.0759055 C28.50983497 266.41644749 25.36321728 270.15731836 22.1611836 274.2634055 C21.69333447 274.86144994 21.22548535 275.45949437 20.74345899 276.07566136 C17.6184555 280.13980261 14.95668572 284.30061892 12.5361836 288.8259055 C10.9736836 291.1384055 10.9736836 291.1384055 9.0986836 291.9821555 C6.31231518 293.49826773 5.1694721 295.3272401 3.4111836 297.9509055 C2.83239453 298.80297581 2.25360547 299.65504613 1.65727735 300.53293675 C0.51995966 302.29300844 -0.57067046 304.08400334 -1.61616015 305.90012425 C-3.0263164 308.1384055 -3.0263164 308.1384055 -5.0263164 309.1384055 C-5.3150664 309.7365305 -5.6038164 310.3346555 -5.9013164 310.9509055 C-7.22714811 313.52891159 -8.95381304 315.13275709 -11.0263164 317.1384055 C-11.3563164 317.7984055 -11.6863164 318.4584055 -12.0263164 319.1384055 C-12.6863164 319.1384055 -13.3463164 319.1384055 -14.0263164 319.1384055 C-13.2763164 313.3884055 -13.2763164 313.3884055 -11.0263164 311.1384055 C-10.8613164 310.4577805 -10.6963164 309.7771555 -10.5263164 309.0759055 C-10.3613164 308.4365305 -10.1963164 307.7971555 -10.0263164 307.1384055 C-9.3663164 306.8084055 -8.7063164 306.4784055 -8.0263164 306.1384055 C-7.22507016 304.19170204 -7.22507016 304.19170204 -6.5888164 301.8884055 C-5.45638465 298.29665227 -4.24536091 295.22577177 -2.0263164 292.1384055 C-1.3663164 291.8084055 -0.7063164 291.4784055 -0.0263164 291.1384055 C0.82895557 289.3366388 0.82895557 289.3366388 1.5986836 287.0759055 C4.49215705 279.49566515 8.28898983 272.35602075 11.9736836 265.1384055 C12.3036836 264.4784055 12.6336836 263.8184055 12.9736836 263.1384055 C13.6336836 263.1384055 14.2936836 263.1384055 14.9736836 263.1384055 C15.2418086 262.2721555 15.5099336 261.4059055 15.7861836 260.5134055 C16.94480347 257.22048586 18.35578199 254.22712676 19.9736836 251.1384055 C20.6336836 251.1384055 21.2936836 251.1384055 21.9736836 251.1384055 C22.0355586 250.1484055 22.0974336 249.1584055 22.1611836 248.1384055 C22.8021036 243.52943664 25.0113357 239.69137728 27.9736836 236.1384055 C28.6336836 236.1384055 29.2936836 236.1384055 29.9736836 236.1384055 C30.0561836 235.3134055 30.1386836 234.4884055 30.2236836 233.6384055 C31.01446591 229.94808803 32.32011413 227.24288848 34.13383985 223.97043675 C35.18204432 222.01978172 35.18204432 222.01978172 34.9736836 219.1384055 C17.1536836 218.8084055 -0.6663164 218.4784055 -19.0263164 218.1384055 C-19.0263164 212.54191297 -18.96367675 211.62843434 -16.2372539 207.34543675 C-14.069839 203.39514829 -12.74783118 199.08099557 -11.27241015 194.833718 C-10.86119922 193.94426488 -10.44998828 193.05481175 -10.0263164 192.1384055 C-9.0363164 191.8084055 -8.0463164 191.4784055 -7.0263164 191.1384055 C-6.92963672 190.3134055 -6.83295703 189.4884055 -6.73334765 188.6384055 C-5.89725645 184.49952307 -4.43413518 180.97576226 -2.7138164 177.1384055 C-2.41797656 176.45262425 -2.12213672 175.766843 -1.81733203 175.0602805 C0.07899671 170.76794245 2.33666773 167.03424375 4.9736836 163.1384055 C6.15080044 160.6897031 6.15080044 160.6897031 7.0361836 158.2634055 C7.36360547 157.41004613 7.69102735 156.55668675 8.0283711 155.677468 C8.34032422 154.83957738 8.65227735 154.00168675 8.9736836 153.1384055 C9.26501172 152.36238988 9.55633985 151.58637425 9.8564961 150.786843 C10.12204297 150.07785863 10.38758985 149.36887425 10.6611836 148.6384055 C11.9736836 145.1384055 11.9736836 145.1384055 12.9736836 143.1384055 C13.6336836 143.1384055 14.2936836 143.1384055 14.9736836 143.1384055 C15.4686836 140.1684055 15.4686836 140.1684055 15.9736836 137.1384055 C16.6336836 137.1384055 17.2936836 137.1384055 17.9736836 137.1384055 C18.0974336 136.0452805 18.2211836 134.9521555 18.3486836 133.8259055 C18.9736836 130.1384055 18.9736836 130.1384055 20.9736836 127.1384055 C21.6336836 127.1384055 22.2936836 127.1384055 22.9736836 127.1384055 C22.9118086 126.43328831 22.8499336 125.72817113 22.7861836 125.00168675 C23.0189066 121.44781261 24.19838755 119.39568824 25.9736836 116.3259055 C26.5305586 115.35008519 27.0874336 114.37426488 27.6611836 113.36887425 C28.0943086 112.63281956 28.5274336 111.89676488 28.9736836 111.1384055 C29.6336836 111.1384055 30.2936836 111.1384055 30.9736836 111.1384055 C30.9118086 110.4165305 30.8499336 109.6946555 30.7861836 108.9509055 C31.01817585 105.4710217 31.83297534 103.88155795 33.9736836 101.1384055 C36.5353539 100.51592892 36.5353539 100.51592892 39.66475415 100.51935643 C40.85068158 100.50840443 42.03660901 100.49745244 43.25847363 100.48616856 C45.21279309 100.50617673 45.21279309 100.50617673 47.20659375 100.5265891 C48.59143788 100.52304841 49.97627784 100.51727141 51.36110425 100.50942296 C54.34546795 100.49723081 57.32926038 100.50072634 60.31360745 100.51625508 C65.03797775 100.54055743 69.76184728 100.52908102 74.48622632 100.51258153 C82.81785 100.48806384 91.14924681 100.49389019 99.48088574 100.50638646 C112.00268895 100.52494132 124.52444708 100.52003388 137.04621851 100.48635226 C141.73626333 100.47487483 146.42594307 100.47922871 151.11596727 100.49637264 C154.04454371 100.50430952 156.97301554 100.49999403 159.90158963 100.49266309 C161.89298701 100.49147544 163.88437602 100.50525221 165.87572217 100.51958531 C175.10512376 100.47882384 182.17333368 99.18569074 189.9736836 94.1384055 C190.9636836 93.8084055 191.9536836 93.4784055 192.9736836 93.1384055 C196.65548183 84.4374037 196.63115202 74.44581527 196.9736836 65.1384055 C196.3136836 65.1384055 195.6536836 65.1384055 194.9736836 65.1384055 C194.5199336 64.3752805 194.0661836 63.6121555 193.5986836 62.8259055 C191.9565918 60.1101383 190.49578603 58.96475554 187.9736836 57.1384055 C187.9736836 56.4784055 187.9736836 55.8184055 187.9736836 55.1384055 C187.3136836 55.1384055 186.6536836 55.1384055 185.9736836 55.1384055 C185.3858711 54.4577805 185.3858711 54.4577805 184.7861836 53.7634055 C178.93224982 48.51505109 169.46028377 49.83872959 162.17558789 49.83542699 C160.77879847 49.82775716 159.38201364 49.81920915 157.9852345 49.80985326 C154.98911217 49.79164044 151.99305142 49.77956029 148.99688268 49.77231473 C144.2616083 49.760796 139.52647054 49.73532861 134.79126477 49.70800084 C127.30696736 49.66642928 119.82266333 49.63397377 112.33830553 49.60552669 C98.91876827 49.55444517 85.4992876 49.49245343 72.07984787 49.42018628 C67.36959214 49.39524338 62.65935469 49.37582222 57.94905722 49.36080414 C55.02630473 49.35062234 52.10358082 49.33647745 49.18085027 49.32132787 C47.17266941 49.31220687 45.16446784 49.30807758 43.15627027 49.30407017 C41.37510564 49.29372243 41.37510564 49.29372243 39.55795789 49.28316563 C38.52173637 49.27931072 37.48551486 49.27545581 36.41789269 49.27148408 C33.9736836 49.1384055 33.9736836 49.1384055 31.9736836 48.1384055 C31.5611836 47.2102805 31.1486836 46.2821555 30.7236836 45.3259055 C29.20682175 41.98074552 29.20682175 41.98074552 26.1611836 40.2634055 C22.11907015 37.56866321 19.49689306 34.27217421 16.9736836 30.1384055 C16.9736836 29.4784055 16.9736836 28.8184055 16.9736836 28.1384055 C16.3136836 28.1384055 15.6536836 28.1384055 14.9736836 28.1384055 C14.7055586 27.3340305 14.4374336 26.5296555 14.1611836 25.7009055 C13.5733711 24.432468 13.5733711 24.432468 12.9736836 23.1384055 C11.9836836 22.8084055 10.9936836 22.4784055 9.9736836 22.1384055 C8.4033711 20.396218 8.4033711 20.396218 6.8486836 18.2634055 C6.33048047 17.56473363 5.81227735 16.86606175 5.2783711 16.146218 C3.9736836 14.1384055 3.9736836 14.1384055 2.9736836 11.1384055 C1.9836836 10.8084055 0.9936836 10.4784055 -0.0263164 10.1384055 C-5.74319481 5.10210786 -5.74319481 5.10210786 -6.0263164 1.1384055 C-4.33960842 -0.54830249 -2.25162972 0.01110495 0 0 Z " fill="#FBFDFA" transform="translate(126.02631640434265,152.8615944981575)"/>
<path d="M0 0 C1.32 0.33 2.64 0.66 4 1 C1.31087086 5.84216179 -2.14315039 9.50840106 -5.94140625 13.5 C-7.98662608 15.98375843 -8.82820828 18.04631012 -10 21 C-11.69140625 22.6953125 -11.69140625 22.6953125 -13.5625 24.125 C-16.21616406 26.16628004 -16.90072095 26.70216285 -18 30 C-18.66 30 -19.32 30 -20 30 C-20.495 31.485 -20.495 31.485 -21 33 C-21.66 33 -22.32 33 -23 33 C-23.28875 33.721875 -23.5775 34.44375 -23.875 35.1875 C-24.24625 36.115625 -24.6175 37.04375 -25 38 C-25.20625 38.78375 -25.4125 39.5675 -25.625 40.375 C-27.04483725 43.08559838 -28.10557251 44.04251208 -30.4375 45.9375 C-34.46384863 49.27804199 -37.61046631 53.01891285 -40.8125 57.125 C-41.28034912 57.72304443 -41.74819824 58.32108887 -42.23022461 58.93725586 C-45.3552281 63.00139711 -48.01699788 67.16221342 -50.4375 71.6875 C-52 74 -52 74 -53.875 74.84375 C-56.66136842 76.35986223 -57.80421149 78.1888346 -59.5625 80.8125 C-60.14128906 81.66457031 -60.72007812 82.51664062 -61.31640625 83.39453125 C-62.45372394 85.15460294 -63.54435406 86.94559784 -64.58984375 88.76171875 C-66 91 -66 91 -68 92 C-68.28875 92.598125 -68.5775 93.19625 -68.875 93.8125 C-70.2008317 96.39050609 -71.92749664 97.99435159 -74 100 C-74.495 100.99 -74.495 100.99 -75 102 C-75.66 102 -76.32 102 -77 102 C-76.25 96.25 -76.25 96.25 -74 94 C-73.835 93.319375 -73.67 92.63875 -73.5 91.9375 C-73.335 91.298125 -73.17 90.65875 -73 90 C-72.01 89.505 -72.01 89.505 -71 89 C-70.19875376 87.05329654 -70.19875376 87.05329654 -69.5625 84.75 C-68.43006825 81.15824676 -67.21904451 78.08736627 -65 75 C-64.01 74.505 -64.01 74.505 -63 74 C-62.14472803 72.1982333 -62.14472803 72.1982333 -61.375 69.9375 C-58.48152654 62.35725965 -54.68469377 55.21761525 -51 48 C-50.67 47.34 -50.34 46.68 -50 46 C-49.34 46 -48.68 46 -48 46 C-47.731875 45.13375 -47.46375 44.2675 -47.1875 43.375 C-46.02888013 40.08208036 -44.61790161 37.08872125 -43 34 C-42.34 34 -41.68 34 -41 34 C-40.938125 33.01 -40.87625 32.02 -40.8125 31 C-40.17157999 26.39103114 -37.9623479 22.55297178 -35 19 C-34.34 19 -33.68 19 -33 19 C-32.9175 18.175 -32.835 17.35 -32.75 16.5 C-31.83552731 12.23246079 -30.07776822 8.80763106 -28 5 C-26.73737471 8.57047018 -27.30460081 10.752679 -28.4375 14.3125 C-30.11082203 20.0430549 -30.85630372 25.19905088 -29 31 C-26.85634883 30.1920235 -26.85634883 30.1920235 -26.1875 28.1875 C-24.64606459 25.34801372 -22.57595304 23.89807066 -20 22 C-19.34 22.33 -18.68 22.66 -18 23 C-17.505 21.515 -17.505 21.515 -17 20 C-15.02 19.67 -13.04 19.34 -11 19 C-10.34 17.02 -9.68 15.04 -9 13 C-8.34 13 -7.68 13 -7 13 C-7 12.01 -7 11.02 -7 10 C-6.01 10 -5.02 10 -4 10 C-4 8.35 -4 6.7 -4 5 C-3.34 5 -2.68 5 -2 5 C-1.34 3.35 -0.68 1.7 0 0 Z " fill="#F5F7F1" transform="translate(189,370)"/>
<path d="M0 0 C0.72517484 0.0015486 1.45034968 0.0030972 2.19749951 0.00469273 C2.96253395 0.00242718 3.72756839 0.00016162 4.51578569 -0.00217259 C7.09909741 -0.00854164 9.68235705 -0.00768137 12.26567578 -0.00685817 C14.10990459 -0.00984792 15.95413277 -0.01325002 17.79836011 -0.01703578 C22.82327308 -0.02590041 27.84816904 -0.02821497 32.87308908 -0.02885157 C37.06293322 -0.02979894 41.25277337 -0.03347539 45.44261599 -0.03702366 C55.32732286 -0.04517819 65.21202062 -0.04760706 75.09673047 -0.04689723 C85.30146282 -0.04629671 95.50614225 -0.05684108 105.71086121 -0.0726409 C114.46248197 -0.08570929 123.21408543 -0.0910814 131.96571589 -0.09044182 C137.19675116 -0.09018656 142.42773949 -0.09305334 147.65876508 -0.10361987 C152.58019536 -0.11328863 157.50153371 -0.11338842 162.4229672 -0.10610324 C164.2301585 -0.10505576 166.03735549 -0.10742996 167.84453702 -0.1134637 C170.3104444 -0.12116376 172.77603276 -0.11655197 175.24193311 -0.10883266 C175.95818506 -0.11397622 176.67443701 -0.11911978 177.41239357 -0.12441921 C181.37240844 -0.09700151 184.40545301 0.39646141 187.9736836 2.1384055 C187.9736836 2.4684055 187.9736836 2.7984055 187.9736836 3.1384055 C187.05297071 3.13618489 186.13225781 3.13396428 185.18364453 3.13167638 C173.44699936 3.10469341 161.71035505 3.08656123 149.9736836 3.0759055 C148.56314773 3.07462147 148.56314773 3.07462147 147.12411618 3.07331151 C122.93019696 3.053886 98.75749801 3.13628275 74.57085156 3.78488988 C64.31813657 4.05200786 54.07787653 4.168013 43.82133985 4.13449925 C42.63095609 4.1309644 41.44057233 4.12742955 40.21411633 4.12378758 C34.4202714 4.10318395 28.62692686 4.06777332 22.83330274 4.0134055 C20.76811821 4.00150828 18.7029327 3.98978031 16.6377461 3.97824925 C15.68517423 3.96474934 14.73260236 3.95124943 13.75116467 3.93734044 C12.8830969 3.93400197 12.01502912 3.9306635 11.12065625 3.92722386 C10.36386579 3.91976643 9.60707532 3.91230901 8.82735181 3.90462559 C6.72617131 3.97720321 6.72617131 3.97720321 4.9736836 6.1384055 C5.76486263 8.13824084 5.76486263 8.13824084 6.9736836 10.1384055 C7.9636836 10.4684055 8.9536836 10.7984055 9.9736836 11.1384055 C10.0355586 12.0871555 10.0974336 13.0359055 10.1611836 14.0134055 C10.4293086 15.0446555 10.6974336 16.0759055 10.9736836 17.1384055 C13.39751436 18.30793966 13.39751436 18.30793966 15.9736836 19.1384055 C17.3486836 21.0134055 17.3486836 21.0134055 17.9736836 23.1384055 C17.5986836 25.3884055 17.5986836 25.3884055 16.9736836 27.1384055 C17.5924336 27.1796555 18.2111836 27.2209055 18.8486836 27.2634055 C19.5499336 27.5521555 20.2511836 27.8409055 20.9736836 28.1384055 C21.65307533 30.13411874 22.31929918 32.13435324 22.9736836 34.1384055 C24.29888862 34.82108688 25.63180541 35.48910961 26.9736836 36.1384055 C27.7236836 38.7634055 27.7236836 38.7634055 27.9736836 41.1384055 C22.87908142 38.74094565 19.87886019 34.84059854 16.9736836 30.1384055 C16.9736836 29.4784055 16.9736836 28.8184055 16.9736836 28.1384055 C16.3136836 28.1384055 15.6536836 28.1384055 14.9736836 28.1384055 C14.7055586 27.3340305 14.4374336 26.5296555 14.1611836 25.7009055 C13.7693086 24.8552805 13.3774336 24.0096555 12.9736836 23.1384055 C11.9836836 22.8084055 10.9936836 22.4784055 9.9736836 22.1384055 C8.4033711 20.396218 8.4033711 20.396218 6.8486836 18.2634055 C6.33048047 17.56473363 5.81227735 16.86606175 5.2783711 16.146218 C3.9736836 14.1384055 3.9736836 14.1384055 2.9736836 11.1384055 C1.9836836 10.8084055 0.9936836 10.4784055 -0.0263164 10.1384055 C-5.74319481 5.10210786 -5.74319481 5.10210786 -6.0263164 1.1384055 C-4.33960842 -0.54830249 -2.25162972 0.01110495 0 0 Z " fill="#F3EEDD" transform="translate(126.02631640434265,152.8615944981575)"/>
<path d="M0 0 C14.83869747 -0.02340623 29.67739249 -0.04101703 44.5161047 -0.05181217 C51.40665747 -0.05695875 58.29719875 -0.06397011 65.18774414 -0.07543945 C71.8402205 -0.08650721 78.49268807 -0.09228828 85.14517403 -0.09487724 C87.68041738 -0.09672176 90.2156601 -0.10032363 92.75089836 -0.10573006 C96.30782344 -0.11301206 99.8646995 -0.11398792 103.42163086 -0.11352539 C104.46460831 -0.11712067 105.50758575 -0.12071594 106.58216858 -0.12442017 C112.47072797 -0.11616017 118.15966197 0.23769556 124 1 C117.47469972 5.35020018 107.90848571 4.15550868 100.27368164 4.18945312 C99.25291534 4.19774643 98.23214905 4.20603973 97.18045044 4.21458435 C94.98325639 4.23186736 92.78604512 4.24706516 90.58882332 4.26036072 C87.11324087 4.28153583 83.63774586 4.3085404 80.16221619 4.33703613 C71.54056209 4.40656322 62.91884614 4.46638689 54.29711914 4.52606201 C46.98949184 4.57696103 39.68191451 4.63173859 32.37435722 4.69187927 C28.94701997 4.71846406 25.51967797 4.73926276 22.09230042 4.7598877 C20.00171683 4.77648396 17.91113541 4.7933552 15.82055664 4.81054688 C14.86522537 4.81473129 13.9098941 4.81891571 12.9256134 4.82322693 C12.05245483 4.83157059 11.17929626 4.83991425 10.27967834 4.84851074 C9.14184953 4.85624134 9.14184953 4.85624134 7.98103428 4.86412811 C5.78815389 4.93140849 5.78815389 4.93140849 3 6 C1.47976664 8.18663273 1.47976664 8.18663273 0.1171875 10.91796875 C-0.41003906 11.92537109 -0.93726563 12.93277344 -1.48046875 13.97070312 C-2.02316406 15.03224609 -2.56585938 16.09378906 -3.125 17.1875 C-3.67542969 18.22970703 -4.22585937 19.27191406 -4.79296875 20.34570312 C-7.4688045 25.51657492 -9.02167961 29.13007764 -10 35 C1.88 35 13.76 35 26 35 C25 39 25 39 24 41 C23.34 41 22.68 41 22 41 C22 41.66 22 42.32 22 43 C21.34 43 20.68 43 20 43 C19.896875 43.61875 19.79375 44.2375 19.6875 44.875 C19 47 19 47 16 49 C16 47.35 16 45.7 16 44 C16.66 44 17.32 44 18 44 C17.814375 43.38125 17.62875 42.7625 17.4375 42.125 C17 40 17 40 18 38 C17.00987915 38.10658936 17.00987915 38.10658936 15.99975586 38.21533203 C12.98027842 38.53244731 9.95910492 38.82887175 6.9375 39.125 C5.89916016 39.23714844 4.86082031 39.34929687 3.79101562 39.46484375 C-2.01789043 40.0180729 -6.55717011 40.23030479 -12 38 C-14 36 -14 36 -14.25 32.5 C-14 29 -14 29 -12 27 C-11.60235737 25.01178687 -11.26224651 23.01055661 -11 21 C-10.34 21 -9.68 21 -9 21 C-9 19.35 -9 17.7 -9 16 C-8.34 15.67 -7.68 15.34 -7 15 C-6.34 15.33 -5.68 15.66 -5 16 C-4.9175 15.21625 -4.835 14.4325 -4.75 13.625 C-4.08553204 10.41340486 -3.18810157 7.79172024 -1.953125 4.7734375 C-1.58864258 3.87802246 -1.22416016 2.98260742 -0.84863281 2.06005859 C-0.42855957 1.04032959 -0.42855957 1.04032959 0 0 Z " fill="#E8D9C4" transform="translate(196,299)"/>
<path d="M0 0 C1.32 0 2.64 0 4 0 C4 0.99 4 1.98 4 3 C7.46438012 4.06306282 10.6342832 4.11461493 14.24731445 4.09765625 C16.16741081 4.09276939 16.16741081 4.09276939 18.126297 4.08778381 C18.81366251 4.08367052 19.50102802 4.07955723 20.20922279 4.07531929 C22.40993043 4.06222238 24.61058594 4.05524839 26.81132507 4.04978943 C29.98710296 4.04141533 33.16285919 4.03064629 36.33862305 4.01803589 C44.72181544 3.9859934 53.10503355 3.97654228 61.48828125 3.97265625 C62.34021183 3.97222887 63.19214241 3.97180149 64.06988907 3.97136116 C81.35925413 3.96706761 98.64405464 4.13118126 115.93111801 4.40527344 C118.00204228 4.43753181 120.07298804 4.46768198 122.14395142 4.49731445 C125.9710906 4.55262958 129.79803769 4.61709071 133.625 4.68359375 C135.32434944 4.70866249 135.32434944 4.70866249 137.05802917 4.73423767 C138.08302017 4.75418289 139.10801117 4.77412811 140.1640625 4.79467773 C141.05561035 4.81022202 141.9471582 4.8257663 142.86572266 4.84178162 C145 5 145 5 147 6 C148.49579604 6.20092783 149.99696724 6.36336066 151.5 6.5 C155.77777778 6.88888889 155.77777778 6.88888889 158 8 C158 9.65 158 11.3 158 13 C157.34 13 156.68 13 156 13 C155.4121875 12.319375 155.4121875 12.319375 154.8125 11.625 C148.95856623 6.37664558 139.48660018 7.70032409 132.2019043 7.69702148 C130.80511488 7.68935166 129.40833005 7.68080365 128.0115509 7.67144775 C125.01542857 7.65323493 122.01936783 7.64115478 119.02319908 7.63390923 C114.2879247 7.6223905 109.55278694 7.59692311 104.81758118 7.56959534 C97.33328376 7.52802378 89.84897973 7.49556827 82.36462194 7.46712118 C68.94508468 7.41603966 55.525604 7.35404793 42.10616428 7.28178078 C37.39590854 7.25683788 32.68567109 7.23741672 27.97537363 7.22239864 C25.05262113 7.21221684 22.12989722 7.19807195 19.20716667 7.18292236 C17.19898581 7.17380137 15.19078424 7.16967208 13.18258667 7.16566467 C11.40142204 7.15531693 11.40142204 7.15531693 9.58427429 7.14476013 C8.54805278 7.14090522 7.51183126 7.1370503 6.4442091 7.13307858 C4 7 4 7 2 6 C1.27306096 4.02111039 0.60183749 2.02045442 0 0 Z " fill="#DFCAB6" transform="translate(156,195)"/>
<path d="M0 0 C0.33 0.66 0.66 1.32 1 2 C0.11962891 4.05957031 0.11962891 4.05957031 -1.2734375 6.578125 C-1.7684375 7.49207031 -2.2634375 8.40601563 -2.7734375 9.34765625 C-3.83271274 11.26726967 -4.89259872 13.18654621 -5.953125 15.10546875 C-6.69949219 16.48412109 -6.69949219 16.48412109 -7.4609375 17.890625 C-7.92290527 18.72625977 -8.38487305 19.56189453 -8.86083984 20.42285156 C-10.33266101 23.4640222 -10.33266101 23.4640222 -11 29 C0.88 29 12.76 29 25 29 C24 33 24 33 23 35 C22.34 35 21.68 35 21 35 C21 35.66 21 36.32 21 37 C20.34 37 19.68 37 19 37 C18.896875 37.61875 18.79375 38.2375 18.6875 38.875 C18 41 18 41 15 43 C15 41.35 15 39.7 15 38 C15.66 38 16.32 38 17 38 C16.814375 37.38125 16.62875 36.7625 16.4375 36.125 C16 34 16 34 17 32 C16.00987915 32.10658936 16.00987915 32.10658936 14.99975586 32.21533203 C11.98027842 32.53244731 8.95910492 32.82887175 5.9375 33.125 C4.89916016 33.23714844 3.86082031 33.34929687 2.79101562 33.46484375 C-3.01789043 34.0180729 -7.55717011 34.23030479 -13 32 C-15 30 -15 30 -15.25 26.5 C-15 23 -15 23 -13 21 C-12.60235737 19.01178687 -12.26224651 17.01055661 -12 15 C-11.34 15 -10.68 15 -10 15 C-10 13.35 -10 11.7 -10 10 C-9.34 9.67 -8.68 9.34 -8 9 C-7.34 9.33 -6.68 9.66 -6 10 C-6 8.68 -6 7.36 -6 6 C-5.34 5.67 -4.68 5.34 -4 5 C-3.67 4.34 -3.34 3.68 -3 3 C-2 1 -2 1 0 0 Z " fill="#FDF1E2" transform="translate(197,305)"/>
<path d="M0 0 C0.33 0 0.66 0 1 0 C1 1.98 1 3.96 1 6 C0.34 6 -0.32 6 -1 6 C-1.33 8.64 -1.66 11.28 -2 14 C-3.65 14.66 -5.3 15.32 -7 16 C-6.67 17.65 -6.34 19.3 -6 21 C-4.35 21.33 -2.7 21.66 -1 22 C-1 21.01 -1 20.02 -1 19 C2 16.8125 2 16.8125 5 15 C0.8516624 23.61577808 0.8516624 23.61577808 -1.87890625 24.84765625 C-4.66402582 26.36075067 -5.80569564 28.1910492 -7.5625 30.8125 C-8.43068359 32.09060547 -8.43068359 32.09060547 -9.31640625 33.39453125 C-10.45372394 35.15460294 -11.54435406 36.94559784 -12.58984375 38.76171875 C-14 41 -14 41 -16 42 C-16.28875 42.598125 -16.5775 43.19625 -16.875 43.8125 C-18.2008317 46.39050609 -19.92749664 47.99435159 -22 50 C-22.33 50.66 -22.66 51.32 -23 52 C-23.66 52 -24.32 52 -25 52 C-24.25 46.25 -24.25 46.25 -22 44 C-21.835 43.319375 -21.67 42.63875 -21.5 41.9375 C-21.335 41.298125 -21.17 40.65875 -21 40 C-20.01 39.505 -20.01 39.505 -19 39 C-18.19875376 37.05329654 -18.19875376 37.05329654 -17.5625 34.75 C-16.43006825 31.15824676 -15.21904451 28.08736627 -13 25 C-12.34 24.67 -11.68 24.34 -11 24 C-10.11013362 22.13097255 -10.11013362 22.13097255 -9.3125 19.8125 C-6.69809573 12.96335726 -3.34190214 6.51483169 0 0 Z " fill="#FAE9CF" transform="translate(137,420)"/>
<path d="M0 0 C1.00601584 3.13848605 0.9483351 5.1375845 0.125 8.3125 C-0.58039209 11.14799059 -1.07229707 13.69887163 -1.375 16.625 C-2.12186163 20.65805278 -3.85248637 23.58834714 -6 27 C-6.64980868 28.16445716 -7.29566464 29.3311291 -7.9375 30.5 C-10.06015986 34.19997232 -12.38422357 37.62702513 -15 41 C-15.66 41 -16.32 41 -17 41 C-17.09796875 41.82242188 -17.1959375 42.64484375 -17.296875 43.4921875 C-18.28408082 50.86218954 -19.86287541 57.25365926 -23 64 C-23.66 63.34 -24.32 62.68 -25 62 C-25.66 63.32 -26.32 64.64 -27 66 C-27.66 66 -28.32 66 -29 66 C-27.26375242 59.5811453 -25.14819255 53.86215164 -22 48 C-21.34 48 -20.68 48 -20 48 C-19.90332031 47.175 -19.80664062 46.35 -19.70703125 45.5 C-18.87094004 41.36111756 -17.40781877 37.83735676 -15.6875 34 C-15.39166016 33.31421875 -15.09582031 32.6284375 -14.79101562 31.921875 C-12.89468688 27.62953694 -10.63701586 23.89583825 -8 20 C-6.82288315 17.5512976 -6.82288315 17.5512976 -5.9375 15.125 C-5.61007813 14.27164062 -5.28265625 13.41828125 -4.9453125 12.5390625 C-4.63335937 11.70117188 -4.32140625 10.86328125 -4 10 C-3.70867187 9.22398437 -3.41734375 8.44796875 -3.1171875 7.6484375 C-2.85164063 6.93945312 -2.58609375 6.23046875 -2.3125 5.5 C-1 2 -1 2 0 0 Z " fill="#FDF5E2" transform="translate(139,296)"/>
<path d="M0 0 C0.72517484 0.0015486 1.45034968 0.0030972 2.19749951 0.00469273 C2.96253395 0.00242718 3.72756839 0.00016162 4.51578569 -0.00217259 C7.09909741 -0.00854164 9.68235705 -0.00768137 12.26567578 -0.00685817 C14.10990459 -0.00984792 15.95413277 -0.01325002 17.79836011 -0.01703578 C22.82327308 -0.02590041 27.84816904 -0.02821497 32.87308908 -0.02885157 C37.06293322 -0.02979894 41.25277337 -0.03347539 45.44261599 -0.03702366 C55.32732286 -0.04517819 65.21202062 -0.04760706 75.09673047 -0.04689723 C85.30146282 -0.04629671 95.50614225 -0.05684108 105.71086121 -0.0726409 C114.46248197 -0.08570929 123.21408543 -0.0910814 131.96571589 -0.09044182 C137.19675116 -0.09018656 142.42773949 -0.09305334 147.65876508 -0.10361987 C152.58019536 -0.11328863 157.50153371 -0.11338842 162.4229672 -0.10610324 C164.2301585 -0.10505576 166.03735549 -0.10742996 167.84453702 -0.1134637 C170.3104444 -0.12116376 172.77603276 -0.11655197 175.24193311 -0.10883266 C175.95818506 -0.11397622 176.67443701 -0.11911978 177.41239357 -0.12441921 C181.37240844 -0.09700151 184.40545301 0.39646141 187.9736836 2.1384055 C187.9736836 2.4684055 187.9736836 2.7984055 187.9736836 3.1384055 C186.68789411 2.97764027 185.40210462 2.81687505 184.07735181 2.65123814 C176.17490149 1.86759832 168.24764775 1.96039345 160.31499219 1.93308324 C158.54013847 1.92348971 156.76528696 1.9134788 154.99043775 1.90308446 C150.19780859 1.87618895 145.40516975 1.85509685 140.61250758 1.83508247 C135.59434226 1.81312753 130.57620629 1.78578561 125.5580647 1.75902623 C116.0669346 1.70922734 106.57578809 1.66424131 97.08462608 1.62100387 C86.27442326 1.57152167 75.4642499 1.51664446 64.65407562 1.46132427 C42.42730577 1.34770092 20.20050774 1.24081954 -2.0263164 1.1384055 C-1.6963164 3.1184055 -1.3663164 5.0984055 -1.0263164 7.1384055 C-2.9638164 6.3884055 -2.9638164 6.3884055 -5.0263164 5.1384055 C-5.8388164 3.0759055 -5.8388164 3.0759055 -6.0263164 1.1384055 C-4.33960842 -0.54830249 -2.25162972 0.01110495 0 0 Z " fill="#9C8E81" transform="translate(126.02631640434265,152.8615944981575)"/>
<path d="M0 0 C1.05785962 0.00436926 1.05785962 0.00436926 2.13709015 0.00882679 C2.8811511 0.00797237 3.62521206 0.00711794 4.39182031 0.00623763 C6.9038936 0.0045806 9.41590123 0.0101078 11.92796844 0.01555592 C13.72119658 0.01583777 15.51442482 0.0156801 17.30765289 0.01511341 C22.19174545 0.01482535 27.07581368 0.02072345 31.95990056 0.02768737 C37.0581776 0.0339195 42.15645514 0.0345246 47.25473541 0.03571278 C56.91618339 0.03882651 66.57762013 0.04704047 76.23906314 0.05706227 C87.23524803 0.0682221 98.23143344 0.07373353 109.22762257 0.0787577 C131.85422523 0.08922305 154.48081789 0.1068233 177.1074118 0.12908131 C177.1074118 0.45908131 177.1074118 0.78908131 177.1074118 1.12908131 C117.7074118 1.45908131 58.3074118 1.78908131 -2.8925882 2.12908131 C-2.10951866 5.87599577 -2.10951866 5.87599577 -0.8925882 8.12908131 C-2.8300882 7.44158131 -2.8300882 7.44158131 -4.8925882 6.12908131 C-5.7050882 3.56658131 -5.7050882 3.56658131 -5.8925882 1.12908131 C-4.22991296 -0.53359393 -2.22073027 0.00695251 0 0 Z " fill="#281D14" transform="translate(123.89258819818497,151.8709186911583)"/>
<path d="M0 0 C1.78709468 5.20215916 -0.06537202 10.04853835 -2 15 C-4.4375 17.6875 -4.4375 17.6875 -7 20 C-9.65734349 23.92601071 -11.26308346 27.22193787 -10.8125 32 C-10.55852691 35.87886181 -11.87645686 37.58588808 -14.375 40.5 C-16.2734375 42.53125 -16.2734375 42.53125 -18 44 C-18.66 44 -19.32 44 -20 44 C-20 45.65 -20 47.3 -20 49 C-20.66 49 -21.32 49 -22 49 C-22.33 49.66 -22.66 50.32 -23 51 C-23.125 43.25 -23.125 43.25 -22 41 C-21.34 41 -20.68 41 -20 41 C-19.731875 40.13375 -19.46375 39.2675 -19.1875 38.375 C-18.02888013 35.08208036 -16.61790161 32.08872125 -15 29 C-14.34 29 -13.68 29 -13 29 C-12.9071875 27.515 -12.9071875 27.515 -12.8125 26 C-12.17157999 21.39103114 -9.9623479 17.55297178 -7 14 C-6.34 14 -5.68 14 -5 14 C-4.87625 12.7625 -4.87625 12.7625 -4.75 11.5 C-3.83552731 7.23246079 -2.07776822 3.80763106 0 0 Z " fill="#F5E3C4" transform="translate(161,375)"/>
<path d="M0 0 C3.10923517 0.80840114 6.0953548 1.74321346 9.125 2.8125 C10.74919813 3.35656637 12.37423834 3.89812368 14 4.4375 C15.375 4.89583333 16.75 5.35416667 18.125 5.8125 C18.125 6.1425 18.125 6.4725 18.125 6.8125 C16.66676788 6.8395043 15.20839325 6.85889787 13.75 6.875 C12.93789063 6.88660156 12.12578125 6.89820313 11.2890625 6.91015625 C9.125 6.8125 9.125 6.8125 7.125 5.8125 C5.15465512 5.69233328 3.18035064 5.63514667 1.20654297 5.60717773 C-0.03459259 5.58723251 -1.27572815 5.56728729 -2.55447388 5.54673767 C-3.9139188 5.5297534 -5.27336505 5.51287459 -6.6328125 5.49609375 C-8.02001567 5.47552419 -9.40721257 5.45452772 -10.79440308 5.43312073 C-14.44727505 5.37790019 -18.10020359 5.32849089 -21.75317383 5.28027344 C-25.48003174 5.23005825 -29.20680741 5.17437229 -32.93359375 5.11914062 C-40.24732621 5.01155929 -47.56112701 4.91011432 -54.875 4.8125 C-54.545 4.1525 -54.215 3.4925 -53.875 2.8125 C-53.29506287 2.81916183 -52.71512573 2.82582367 -52.11761475 2.83268738 C-46.08318626 2.8990432 -40.04886137 2.94430159 -34.01416016 2.97729492 C-31.76183869 2.99238395 -29.50954661 3.01285755 -27.25732422 3.03881836 C-24.02043404 3.07519593 -20.78393225 3.0922253 -17.546875 3.10546875 C-16.53945251 3.12095261 -15.53203003 3.13643646 -14.49407959 3.15238953 C-13.55340637 3.15261612 -12.61273315 3.15284271 -11.64355469 3.15307617 C-10.81748718 3.15973801 -9.99141968 3.16639984 -9.14031982 3.17326355 C-5.22311688 2.54942932 -4.10551482 -0.26775097 0 0 Z " fill="#FDF8E7" transform="translate(293.875,195.1875)"/>
<path d="M0 0 C0.66 1.32 1.32 2.64 2 4 C2.66 4 3.32 4 4 4 C4.83736264 10.6989011 4.83736264 10.6989011 2.51171875 14.3125 C0.75452917 16.34982125 -0.95018791 18.25626845 -3 20 C-3.66 20 -4.32 20 -5 20 C-5 20.99 -5 21.98 -5 23 C-6.66611905 23.042721 -8.33382885 23.04063832 -10 23 C-11 22 -11 22 -11.3125 19.625 C-11.209375 18.75875 -11.10625 17.8925 -11 17 C-9.68212715 15.97971135 -8.34789347 14.98028616 -7 14 C-6.26259783 11.48051222 -6.26259783 11.48051222 -6 9 C-5.67 8.34 -5.34 7.68 -5 7 C-4.01 7 -3.02 7 -2 7 C-2 6.34 -2 5.68 -2 5 C-1.34 5 -0.68 5 0 5 C0 3.35 0 1.7 0 0 Z " fill="#FDF7E6" transform="translate(141,419)"/>
<path d="M0 0 C2.31 0 4.62 0 7 0 C7.33 0.99 7.66 1.98 8 3 C8.99 3.33 9.98 3.66 11 4 C11.061875 4.94875 11.12375 5.8975 11.1875 6.875 C11.455625 7.90625 11.72375 8.9375 12 10 C14.42383077 11.16953416 14.42383077 11.16953416 17 12 C18.375 13.875 18.375 13.875 19 16 C18.625 18.25 18.625 18.25 18 20 C18.61875 20.04125 19.2375 20.0825 19.875 20.125 C20.57625 20.41375 21.2775 20.7025 22 21 C22.67939174 22.99571323 23.34561559 24.99594773 24 27 C25.32520503 27.68268138 26.65812182 28.3507041 28 29 C28.75 31.625 28.75 31.625 29 34 C23.90539783 31.60254015 20.90517659 27.70219304 18 23 C18 22.34 18 21.68 18 21 C17.34 21 16.68 21 16 21 C15.731875 20.195625 15.46375 19.39125 15.1875 18.5625 C14.795625 17.716875 14.40375 16.87125 14 16 C13.01 15.67 12.02 15.34 11 15 C9.4296875 13.2578125 9.4296875 13.2578125 7.875 11.125 C7.09769531 10.07699219 7.09769531 10.07699219 6.3046875 9.0078125 C5 7 5 7 4 4 C3.01 3.67 2.02 3.34 1 3 C0.67 2.01 0.34 1.02 0 0 Z " fill="#F1E2CC" transform="translate(125,160)"/>
<path d="M0 0 C1.10493755 3.31481265 1.05432279 5.66131116 0 9 C-0.99 9.66 -1.98 10.32 -3 11 C-3.38749213 13.32495277 -3.71758117 15.6599583 -4 18 C-4.33644531 18.60585938 -4.67289063 19.21171875 -5.01953125 19.8359375 C-6.33143408 22.73153179 -6.19374738 25.08762064 -6.125 28.25 C-6.09792969 29.86648438 -6.09792969 29.86648438 -6.0703125 31.515625 C-6.04710937 32.33546875 -6.02390625 33.1553125 -6 34 C-6.99 34 -7.98 34 -9 34 C-9 32.68 -9 31.36 -9 30 C-9.66 30 -10.32 30 -11 30 C-11.33 30.99 -11.66 31.98 -12 33 C-12.99 33 -13.98 33 -15 33 C-15.495 35.475 -15.495 35.475 -16 38 C-17.125 34.25 -17.125 34.25 -16 32 C-15.34 32 -14.68 32 -14 32 C-13.87625 30.906875 -13.7525 29.81375 -13.625 28.6875 C-13 25 -13 25 -11 22 C-10.34 22 -9.68 22 -9 22 C-9.061875 21.29488281 -9.12375 20.58976562 -9.1875 19.86328125 C-8.954777 16.30940711 -7.77529604 14.25728274 -6 11.1875 C-5.443125 10.21167969 -4.88625 9.23585938 -4.3125 8.23046875 C-3.6628125 7.12638672 -3.6628125 7.12638672 -3 6 C-2.34 6 -1.68 6 -1 6 C-1.020625 5.195625 -1.04125 4.39125 -1.0625 3.5625 C-1 1 -1 1 0 0 Z M-12 37 C-11.67 37.99 -11.34 38.98 -11 40 C-11.99 40.33 -12.98 40.66 -14 41 C-14 40.01 -14 39.02 -14 38 C-13.34 37.67 -12.68 37.34 -12 37 Z " fill="#F7EEE1" transform="translate(158,258)"/>
<path d="M0 0 C2 1 2 1 2.8515625 2.92578125 C3.10679687 3.71339844 3.36203125 4.50101563 3.625 5.3125 C3.88539063 6.09238281 4.14578125 6.87226563 4.4140625 7.67578125 C5 10 5 10 5 14 C5.66 14 6.32 14 7 14 C8.3836167 21.21457281 9.20971422 28.28627432 9.25 35.625 C9.26353516 36.65463867 9.26353516 36.65463867 9.27734375 37.70507812 C9.25548041 41.35989983 9.08299064 42.87551403 7 46 C6.96261719 44.85402344 6.92523438 43.70804688 6.88671875 42.52734375 C6.82101416 40.99736554 6.75456841 39.46741903 6.6875 37.9375 C6.66494141 37.18533203 6.64238281 36.43316406 6.61914062 35.65820312 C6.43804692 31.85523524 6.07311877 28.75904317 4.46875 25.28125 C3.00241226 22.00538908 2.66735816 20.09428478 2.8125 16.5625 C2.83957031 15.69753906 2.86664063 14.83257812 2.89453125 13.94140625 C2.92933594 13.30074219 2.96414063 12.66007813 3 12 C2.01 12 1.02 12 0 12 C-1.28571429 3.42857143 -1.28571429 3.42857143 0 0 Z " fill="#C5B2A3" transform="translate(364,194)"/>
<path d="M0 0 C0 0.99 0 1.98 0 3 C-1.42578125 4.28125 -1.42578125 4.28125 -3.3125 5.5 C-5.20816078 6.73992907 -6.86637935 7.86277772 -8.44921875 9.48828125 C-10.30686961 11.2991399 -12.23392649 12.4298292 -14.5 13.6875 C-15.66015625 14.34298828 -15.66015625 14.34298828 -16.84375 15.01171875 C-19 16 -19 16 -22 16 C-22 16.66 -22 17.32 -22 18 C-23.32 18 -24.64 18 -26 18 C-26 18.66 -26 19.32 -26 20 C-27.32 19.67 -28.64 19.34 -30 19 C-28.35 18.34 -26.7 17.68 -25 17 C-25 16.01 -25 15.02 -25 14 C-23.576875 13.9071875 -23.576875 13.9071875 -22.125 13.8125 C-21.09375 13.544375 -20.0625 13.27625 -19 13 C-17.68931667 10.55711372 -17.68931667 10.55711372 -17 8 C-16.34 7.67 -15.68 7.34 -15 7 C-14.67 6.01 -14.34 5.02 -14 4 C-13.01 3.67 -12.02 3.34 -11 3 C-10.67 2.34 -10.34 1.68 -10 1 C-7.98177083 1.32552083 -5.96354167 1.65104167 -3.9453125 1.9765625 C-2.98238281 1.98816406 -2.98238281 1.98816406 -2 2 C-1.34 1.34 -0.68 0.68 0 0 Z " fill="#F9F3EC" transform="translate(350,280)"/>
<path d="M0 0 C0.33 0 0.66 0 1 0 C1 1.98 1 3.96 1 6 C12.88 6 24.76 6 37 6 C36 10 36 10 35 12 C34.34 12 33.68 12 33 12 C33 12.66 33 13.32 33 14 C32.34 14 31.68 14 31 14 C30.896875 14.61875 30.79375 15.2375 30.6875 15.875 C30 18 30 18 27 20 C27 18.35 27 16.7 27 15 C27.99 15 28.98 15 30 15 C30.2165625 13.824375 30.2165625 13.824375 30.4375 12.625 C31 10 31 10 32 8 C31.0713916 8.00523682 30.1427832 8.01047363 29.18603516 8.01586914 C25.74576195 8.03289593 22.30553341 8.04544273 18.86523438 8.05493164 C17.37531834 8.05996514 15.88540726 8.06679242 14.39550781 8.07543945 C12.25584696 8.08754805 10.11625132 8.09323807 7.9765625 8.09765625 C6.68830566 8.10289307 5.40004883 8.10812988 4.07275391 8.11352539 C1 8 1 8 -1 7 C-0.67 4.69 -0.34 2.38 0 0 Z " fill="#CCAF9B" transform="translate(185,328)"/>
<path d="M0 0 C8.57142857 1 8.57142857 1 12 2 C12 2.66 12 3.32 12 4 C12.66 4.0825 13.32 4.165 14 4.25 C22.2631911 6.31579778 26.89552172 10.54878705 32.66015625 16.59765625 C34.55685141 18.54501439 36.41630725 20.22289479 38.5625 21.875 C40.97764672 23.98051253 41.76665754 24.84987677 42 28 C41.01 27.67 40.02 27.34 39 27 C38.731875 26.38125 38.46375 25.7625 38.1875 25.125 C36.49180875 22.09060513 34.0820449 21.44265931 31 20 C30.67 19.34 30.34 18.68 30 18 C29.01 17.67 28.02 17.34 27 17 C26.87625 16.360625 26.7525 15.72125 26.625 15.0625 C26.41875 14.381875 26.2125 13.70125 26 13 C23.50965614 11.70339566 23.50965614 11.70339566 21 11 C21 10.34 21 9.68 21 9 C19.9171875 9.3403125 19.9171875 9.3403125 18.8125 9.6875 C16 10 16 10 13.1875 8.75 C12.465625 8.1725 11.74375 7.595 11 7 C11 6.01 11 5.02 11 4 C7.37 3.01 3.74 2.02 0 1 C0 0.67 0 0.34 0 0 Z " fill="#C6AE98" transform="translate(316,156)"/>
<path d="M0 0 C1.32 0 2.64 0 4 0 C4 1.65 4 3.3 4 5 C4.66 5 5.32 5 6 5 C4.62901008 7.95290136 3.22467373 10.60419752 1 13 C-0.32 13 -1.64 13 -3 13 C-3.16435547 13.88751953 -3.16435547 13.88751953 -3.33203125 14.79296875 C-4.25304972 19.3830852 -5.1535375 23.16346358 -8 27 C-8.33 27 -8.66 27 -9 27 C-8.22095672 14.33029613 -8.22095672 14.33029613 -6 9 C-5.34 9 -4.68 9 -4 9 C-3.67 7.35 -3.34 5.7 -3 4 C-2.01 4 -1.02 4 0 4 C0 2.68 0 1.36 0 0 Z M0 8 C-0.99 8.495 -0.99 8.495 -2 9 C-2 9.99 -2 10.98 -2 12 C-1.01 11.67 -0.02 11.34 1 11 C0.67 10.01 0.34 9.02 0 8 Z " fill="#F8F8EE" transform="translate(146,287)"/>
<path d="M0 0 C1.78470703 0.13535156 1.78470703 0.13535156 3.60546875 0.2734375 C6.1232618 0.54944405 8.39101898 0.91598074 10.8125 1.625 C11.3075 4.1 11.3075 4.1 11.8125 6.625 C11.1525 5.965 10.4925 5.305 9.8125 4.625 C7.63125409 4.29447545 7.63125409 4.29447545 5.08740234 4.30615234 C4.10653656 4.28628265 3.12567078 4.26641296 2.11508179 4.24594116 C1.05358917 4.23438995 -0.00790344 4.22283875 -1.1015625 4.2109375 C-2.18633881 4.19157135 -3.27111511 4.1722052 -4.38876343 4.1522522 C-7.86326159 4.09233574 -11.33779267 4.04602261 -14.8125 4 C-17.16407718 3.96183135 -19.51564021 3.92278029 -21.8671875 3.8828125 C-27.6404997 3.78662441 -33.41389666 3.70161247 -39.1875 3.625 C-39.1875 3.295 -39.1875 2.965 -39.1875 2.625 C-38.4668335 2.56965088 -37.74616699 2.51430176 -37.00366211 2.45727539 C-33.71058909 2.20302592 -30.41779747 1.94529258 -27.125 1.6875 C-25.99126953 1.60048828 -24.85753906 1.51347656 -23.68945312 1.42382812 C-19.20635085 1.07093086 -14.77508142 0.71480242 -10.328125 0.03515625 C-6.78372233 -0.42773216 -3.56005653 -0.28728919 0 0 Z " fill="#DED1BE" transform="translate(151.1875,367.375)"/>
<path d="M0 0 C0.97591583 3.38317487 0.85856655 5.5657338 0 9 C-0.66 9 -1.32 9 -2 9 C-2.09796875 9.82242187 -2.1959375 10.64484375 -2.296875 11.4921875 C-3.28408082 18.86218954 -4.86287541 25.25365926 -8 32 C-8.66 31.34 -9.32 30.68 -10 30 C-10.66 31.32 -11.32 32.64 -12 34 C-12.66 34 -13.32 34 -14 34 C-12.26375242 27.5811453 -10.14819255 21.86215164 -7 16 C-6.34 16 -5.68 16 -5 16 C-4.9175 15.21625 -4.835 14.4325 -4.75 13.625 C-3.75634931 8.822355 -1.91286482 4.50190511 0 0 Z " fill="#DCCDC1" transform="translate(124,328)"/>
<path d="M0 0 C1 2 1 2 0.5625 4.1875 C-1.35351613 7.63632904 -3.74556063 9.45946595 -6.7578125 11.953125 C-10.68041257 15.53403516 -13.80365187 19.77503984 -17 24 C-17.66 23.67 -18.32 23.34 -19 23 C-18.62289462 17.5948229 -16.96290424 15.57627944 -13 12 C-12.34 11.01 -11.68 10.02 -11 9 C-9.515 8.5978125 -9.515 8.5978125 -8 8.1875 C-7.01 7.795625 -6.02 7.40375 -5 7 C-3.77479736 3.99152582 -3.77479736 3.99152582 -3 1 C-2.01 0.67 -1.02 0.34 0 0 Z " fill="#F5E5D4" transform="translate(163,406)"/>
<path d="M0 0 C1 2 1 2 0.44140625 4.1640625 C0.15136719 4.97617187 -0.13867188 5.78828125 -0.4375 6.625 C-0.72496094 7.44226563 -1.01242188 8.25953125 -1.30859375 9.1015625 C-1.53675781 9.72804688 -1.76492187 10.35453125 -2 11 C-1.34 11.33 -0.68 11.66 0 12 C0 10.68 0 9.36 0 8 C0.99 8.33 1.98 8.66 3 9 C0.375 14.75 0.375 14.75 -3 17 C-3.309375 17.61875 -3.61875 18.2375 -3.9375 18.875 C-5.22036984 21.44073968 -6.94993273 23.01606394 -9 25 C-9.33 25.66 -9.66 26.32 -10 27 C-10.66 27 -11.32 27 -12 27 C-11.25 21.25 -11.25 21.25 -9 19 C-8.835 18.319375 -8.67 17.63875 -8.5 16.9375 C-8.335 16.298125 -8.17 15.65875 -8 15 C-7.34 14.67 -6.68 14.34 -6 14 C-5.19875376 12.05329654 -5.19875376 12.05329654 -4.5625 9.75 C-3.43818496 6.15333913 -2.12873108 3.14241254 0 0 Z " fill="#CBB08E" transform="translate(124,445)"/>
<path d="M0 0 C1.25908676 0.00222061 2.51817352 0.00444122 3.81541443 0.00672913 C4.50806396 0.0065831 5.2007135 0.00643707 5.91435242 0.00628662 C8.21400537 0.00698577 10.51357828 0.01477823 12.81321716 0.02259827 C14.40362504 0.02446244 15.99403349 0.02588635 17.58444214 0.02688599 C21.77827021 0.03071123 25.97206386 0.04054156 30.1658783 0.05158997 C34.44220006 0.06180395 38.71852736 0.06638358 42.99485779 0.07142639 C51.39135799 0.08216383 59.78783017 0.09924032 68.18431091 0.12025452 C68.18431091 0.45025452 68.18431091 0.78025452 68.18431091 1.12025452 C45.74431091 1.12025452 23.30431091 1.12025452 0.18431091 1.12025452 C0.51431091 3.10025452 0.84431091 5.08025452 1.18431091 7.12025452 C-0.75318909 6.37025452 -0.75318909 6.37025452 -2.81568909 5.12025452 C-3.62818909 3.05775452 -3.62818909 3.05775452 -3.81568909 1.12025452 C-2.81568909 0.12025452 -2.81568909 0.12025452 0 0 Z " fill="#8A7F75" transform="translate(123.81568908691406,152.87974548339844)"/>
<path d="M0 0 C1.25908676 0.00222061 2.51817352 0.00444122 3.81541443 0.00672913 C4.50806396 0.0065831 5.2007135 0.00643707 5.91435242 0.00628662 C8.21400537 0.00698577 10.51357828 0.01477823 12.81321716 0.02259827 C14.40362504 0.02446244 15.99403349 0.02588635 17.58444214 0.02688599 C21.77827021 0.03071123 25.97206386 0.04054156 30.1658783 0.05158997 C34.44220006 0.06180395 38.71852736 0.06638358 42.99485779 0.07142639 C51.39135799 0.08216383 59.78783017 0.09924032 68.18431091 0.12025452 C68.18431091 0.45025452 68.18431091 0.78025452 68.18431091 1.12025452 C45.41431091 1.45025452 22.64431091 1.78025452 -0.81568909 2.12025452 C-0.03261954 5.86716898 -0.03261954 5.86716898 1.18431091 8.12025452 C-0.75318909 7.43275452 -0.75318909 7.43275452 -2.81568909 6.12025452 C-3.62818909 3.55775452 -3.62818909 3.55775452 -3.81568909 1.12025452 C-2.81568909 0.12025452 -2.81568909 0.12025452 0 0 Z " fill="#221811" transform="translate(121.81568908691406,151.87974548339844)"/>
<path d="M0 0 C0.33 0 0.66 0 1 0 C1 1.98 1 3.96 1 6 C18.82 6 36.64 6 55 6 C55.495 7.98 55.495 7.98 56 10 C55.34 10.66 54.68 11.32 54 12 C54 10.35 54 8.7 54 7 C26.775 7.495 26.775 7.495 -1 8 C-1 1 -1 1 0 0 Z " fill="#554338" transform="translate(106,365)"/>
<path d="M0 0 C-0.33 1.32 -0.66 2.64 -1 4 C-7.06970164 5.76829009 -12.44746755 6.27135657 -18.75 6.1953125 C-19.64871826 6.1924826 -20.54743652 6.18965271 -21.47338867 6.18673706 C-24.31573365 6.17563125 -27.15775186 6.15054505 -30 6.125 C-31.9387975 6.11495777 -33.87759999 6.10583411 -35.81640625 6.09765625 C-40.54439482 6.07572345 -45.2721422 6.04126084 -50 6 C-50 5.67 -50 5.34 -50 5 C-48.89487061 4.98018066 -47.78974121 4.96036133 -46.65112305 4.93994141 C-42.55274587 4.86389551 -38.45472421 4.77517671 -34.35668945 4.68261719 C-32.58267229 4.64432321 -30.80857736 4.60947105 -29.03442383 4.578125 C-26.48490601 4.53248328 -23.9359237 4.47448815 -21.38671875 4.4140625 C-20.59287277 4.40251129 -19.79902679 4.39096008 -18.98112488 4.37905884 C-15.15676092 4.27644615 -13.25403901 4.16935934 -10 2 C-6.53500284 0.88625091 -3.64751048 0 0 0 Z " fill="#FDF5EB" transform="translate(314,250)"/>
<path d="M0 0 C0 4.04008386 -0.62769992 5.5773891 -3.3125 8.625 C-5.89538927 10.90755331 -6.82371765 11.31936807 -10 12 C-10.33 12.99 -10.66 13.98 -11 15 C-11.66 15 -12.32 15 -13 15 C-13.4021875 16.2065625 -13.4021875 16.2065625 -13.8125 17.4375 C-14.204375 18.283125 -14.59625 19.12875 -15 20 C-15.99 20.33 -16.98 20.66 -18 21 C-18 18.69 -18 16.38 -18 14 C-11.375 11.125 -11.375 11.125 -8 10 C-5.83408629 7.23851844 -5.83408629 7.23851844 -5.6875 4.4375 C-5.460625 3.633125 -5.23375 2.82875 -5 2 C-2.4375 0.6875 -2.4375 0.6875 0 0 Z " fill="#F2EAD3" transform="translate(211,348)"/>
<path d="M0 0 C10.56 0 21.12 0 32 0 C32 0.33 32 0.66 32 1 C23.42 1 14.84 1 6 1 C5.67 2.32 5.34 3.64 5 5 C3.16391839 6.93271748 1.12737753 8.37051934 -1 10 C-2 7 -2 7 0 0 Z " fill="#F1EBDD" transform="translate(160,255)"/>
<path d="M0 0 C0.33 0.66 0.66 1.32 1 2 C0.10375977 4.15478516 0.10375977 4.15478516 -1.30859375 6.7890625 C-1.80810547 7.73007812 -2.30761719 8.67109375 -2.82226562 9.640625 C-3.35529297 10.62546875 -3.88832031 11.6103125 -4.4375 12.625 C-4.96666016 13.61757813 -5.49582031 14.61015625 -6.04101562 15.6328125 C-7.3536054 18.09244018 -8.67351346 20.54784707 -10 23 C-11.04794275 19.85617176 -11.00520947 18.12796561 -10.6875 14.875 C-10.60886719 13.98554688 -10.53023437 13.09609375 -10.44921875 12.1796875 C-10.30097656 11.46039063 -10.15273437 10.74109375 -10 10 C-9.34 9.67 -8.68 9.34 -8 9 C-7.34 9.33 -6.68 9.66 -6 10 C-6 8.68 -6 7.36 -6 6 C-5.34 5.67 -4.68 5.34 -4 5 C-3.67 4.34 -3.34 3.68 -3 3 C-2 1 -2 1 0 0 Z " fill="#E0D1BF" transform="translate(197,305)"/>
<path d="M0 0 C0.66 0 1.32 0 2 0 C2.29240794 3.09194322 2.2622862 4.59815511 0.5390625 7.23828125 C-0.09257812 7.92277344 -0.72421875 8.60726563 -1.375 9.3125 C-2.00148437 10.00988281 -2.62796875 10.70726562 -3.2734375 11.42578125 C-5 13 -5 13 -7 13 C-7 14.65 -7 16.3 -7 18 C-7.66 18 -8.32 18 -9 18 C-9.33 18.66 -9.66 19.32 -10 20 C-10.125 12.25 -10.125 12.25 -9 10 C-8.34 10 -7.68 10 -7 10 C-6.67 8.68 -6.34 7.36 -6 6 C-4.68 6 -3.36 6 -2 6 C-1.34 4.02 -0.68 2.04 0 0 Z " fill="#EDDDD2" transform="translate(148,406)"/>
<path d="M0 0 C1.32 0.33 2.64 0.66 4 1 C1.31087086 5.84216179 -2.14315039 9.50840106 -5.94140625 13.5 C-7.97960545 15.97523243 -8.84025148 18.0533428 -10 21 C-10.99 21.66 -11.98 22.32 -13 23 C-12.57742724 21.5164999 -12.13643678 20.03823576 -11.6875 18.5625 C-11.44386719 17.73878906 -11.20023438 16.91507812 -10.94921875 16.06640625 C-10.63597656 15.38449219 -10.32273438 14.70257813 -10 14 C-9.01 13.67 -8.02 13.34 -7 13 C-7 12.01 -7 11.02 -7 10 C-6.01 10 -5.02 10 -4 10 C-4 8.35 -4 6.7 -4 5 C-3.34 5 -2.68 5 -2 5 C-1.34 3.35 -0.68 1.7 0 0 Z " fill="#DACAC0" transform="translate(189,370)"/>
<path d="M0 0 C0.66 0.99 1.32 1.98 2 3 C1.34 3 0.68 3 0 3 C-0.33 6.96 -0.66 10.92 -1 15 C-1.99 15.33 -2.98 15.66 -4 16 C-4.33 16.99 -4.66 17.98 -5 19 C-5.99 19 -6.98 19 -8 19 C-8.33 20.65 -8.66 22.3 -9 24 C-10.125 20.25 -10.125 20.25 -9 18 C-8.34 18 -7.68 18 -7 18 C-6.87625 16.906875 -6.7525 15.81375 -6.625 14.6875 C-6 11 -6 11 -4 8 C-3.34 8 -2.68 8 -2 8 C-2.061875 6.8553125 -2.061875 6.8553125 -2.125 5.6875 C-2 3 -2 3 0 0 Z " fill="#DCC7B3" transform="translate(151,272)"/>
<path d="M0 0 C0.99 0.33 1.98 0.66 3 1 C3 1.66 3 2.32 3 3 C3.66 3 4.32 3 5 3 C5 4.32 5 5.64 5 7 C5.99 7 6.98 7 8 7 C8.33 7.66 8.66 8.32 9 9 C9.99 9.33 10.98 9.66 12 10 C12.33 12.97 12.66 15.94 13 19 C12.01 18.01 11.02 17.02 10 16 C10 15.01 10 14.02 10 13 C9.21625 12.79375 8.4325 12.5875 7.625 12.375 C5 11 5 11 3.875 7.9375 C3.441875 6.4834375 3.441875 6.4834375 3 5 C2.01 4.67 1.02 4.34 0 4 C0 2.68 0 1.36 0 0 Z " fill="#F6E3CE" transform="translate(143,176)"/>
<path d="M0 0 C8.57142857 1 8.57142857 1 12 2 C12 2.66 12 3.32 12 4 C12.721875 4.103125 13.44375 4.20625 14.1875 4.3125 C17.24491993 5.05986932 19.38329635 6.28045189 22 8 C21.67 8.99 21.34 9.98 21 11 C21 10.34 21 9.68 21 9 C19.9171875 9.3403125 19.9171875 9.3403125 18.8125 9.6875 C16 10 16 10 13.1875 8.75 C12.465625 8.1725 11.74375 7.595 11 7 C11 6.01 11 5.02 11 4 C7.37 3.01 3.74 2.02 0 1 C0 0.67 0 0.34 0 0 Z " fill="#D4C2B7" transform="translate(316,156)"/>
<path d="M0 0 C1.32 0 2.64 0 4 0 C4.37254569 3.35291118 4.31050198 4.6038423 2.1875 7.3125 C0 9 0 9 -3 9 C-3 9.99 -3 10.98 -3 12 C-3.66 12 -4.32 12 -5 12 C-5.33 13.32 -5.66 14.64 -6 16 C-6.66 15.67 -7.32 15.34 -8 15 C-7.34 13.02 -6.68 11.04 -6 9 C-5.34 9 -4.68 9 -4 9 C-3.67 7.35 -3.34 5.7 -3 4 C-2.01 4 -1.02 4 0 4 C0 2.68 0 1.36 0 0 Z " fill="#FAEEDA" transform="translate(146,287)"/>
<path d="M0 0 C5.28 0 10.56 0 16 0 C16 0.33 16 0.66 16 1 C13.69 1 11.38 1 9 1 C8.7525 1.804375 8.505 2.60875 8.25 3.4375 C7 6 7 6 5.0625 6.9375 C3 7 3 7 0 5 C0 3.35 0 1.7 0 0 Z " fill="#FBF0DD" transform="translate(124,154)"/>
<path d="M0 0 C0.99 0 1.98 0 3 0 C2.67 1.65 2.34 3.3 2 5 C0.35 5.33 -1.3 5.66 -3 6 C-2.9175 6.7425 -2.835 7.485 -2.75 8.25 C-3.07105184 11.78157027 -4.35265617 12.76630364 -7 15 C-7.50227431 9.72611976 -6.32894202 7.08984305 -3 3 C-2.01 2.67 -1.02 2.34 0 2 C0 1.34 0 0.68 0 0 Z " fill="#F8EFDF" transform="translate(209,344)"/>
<path d="M0 0 C0.99 0 1.98 0 3 0 C1.70601598 5.05830117 -0.20746004 7.47835575 -4 11 C-5.35555293 12.64864545 -6.69631653 14.31003995 -8 16 C-8.6875 14.3125 -8.6875 14.3125 -9 12 C-7.27402861 8.36637602 -5.0278479 5.63715784 -2 3 C-1.34 3 -0.68 3 0 3 C0 2.01 0 1.02 0 0 Z " fill="#E9DCCC" transform="translate(359,264)"/>
<path d="M0 0 C0.33 0 0.66 0 1 0 C1 1.98 1 3.96 1 6 C0.34 6 -0.32 6 -1 6 C-1.33 8.64 -1.66 11.28 -2 14 C-3.65 14.66 -5.3 15.32 -7 16 C-7 17.65 -7 19.3 -7 21 C-7.99 21.33 -8.98 21.66 -10 22 C-8.64833121 16.52929842 -6.60488159 11.97725148 -3.875 7.0625 C-3.50246094 6.37865234 -3.12992188 5.69480469 -2.74609375 4.99023438 C-1.83692643 3.32342761 -0.91933645 1.66121958 0 0 Z " fill="#BEA692" transform="translate(137,420)"/>
<path d="M0 0 C0.99 0 1.98 0 3 0 C3.125 2.875 3.125 2.875 3 6 C2.34 6.66 1.68 7.32 1 8 C0.01 8 -0.98 8 -2 8 C-2.33 10.31 -2.66 12.62 -3 15 C-3.99 15 -4.98 15 -6 15 C-5.27623543 11.50596417 -3.93714794 8.48001095 -2.4375 5.25 C-1.98246094 4.26515625 -1.52742187 3.2803125 -1.05859375 2.265625 C-0.70925781 1.51796875 -0.35992187 0.7703125 0 0 Z " fill="#FBF7E1" transform="translate(155,391)"/>
<path d="M0 0 C0 0.99 0 1.98 0 3 C-1.42578125 4.28125 -1.42578125 4.28125 -3.3125 5.5 C-5.26916805 6.77983319 -6.94712066 7.94647262 -8.59375 9.61328125 C-10.30683415 11.30257257 -11.6625061 11.59698381 -14 12 C-14 10.68 -14 9.36 -14 8 C-13.34 7.67 -12.68 7.34 -12 7 C-12 6.34 -12 5.68 -12 5 C-11.07767578 4.83564453 -11.07767578 4.83564453 -10.13671875 4.66796875 C-9.32847656 4.50941406 -8.52023437 4.35085938 -7.6875 4.1875 C-6.88699219 4.03667969 -6.08648437 3.88585937 -5.26171875 3.73046875 C-2.76554413 2.92427764 -1.67577894 1.97947998 0 0 Z " fill="#C6B6AA" transform="translate(350,280)"/>
<path d="M0 0 C0.5775 0.45375 1.155 0.9075 1.75 1.375 C3.87531809 3.05679896 3.87531809 3.05679896 6.125 3.8125 C8.88810493 5.56246646 8.99037767 7.97113302 10 11 C11.32520503 11.68268138 12.65812182 12.3507041 14 13 C14.75 15.625 14.75 15.625 15 18 C9.90539783 15.60254015 6.90517659 11.70219304 4 7 C4 6.34 4 5.68 4 5 C3.34 5 2.68 5 2 5 C1.34 3.35 0.68 1.7 0 0 Z " fill="#977B68" transform="translate(139,176)"/>
<path d="M0 0 C0 4.07546013 -1.55304448 5.80536362 -4 9 C-4.639375 9.309375 -5.27875 9.61875 -5.9375 9.9375 C-9.29983582 11.66961239 -10.96947569 14.88763897 -13 18 C-13.33 16.68 -13.66 15.36 -14 14 C-13.01 13.67 -12.02 13.34 -11 13 C-11 12.01 -11 11.02 -11 10 C-10.34 10 -9.68 10 -9 10 C-9 9.01 -9 8.02 -9 7 C-7.68 7 -6.36 7 -5 7 C-5 6.01 -5 5.02 -5 4 C-2.5 1.8125 -2.5 1.8125 0 0 Z " fill="#CEB9A1" transform="translate(141,435)"/>
<path d="M0 0 C1.05703507 3.17815212 0.97696236 4.76748387 -0.375 7.8125 C-1.92455037 11.58378012 -2.57837964 14.95244451 -3 19 C-4.32 19.33 -5.64 19.66 -7 20 C-6.45191384 15.39607623 -5.13128124 12.09205997 -3 8 C-2.31039038 6.00779443 -1.63920943 4.00894394 -1 2 C-0.67 1.34 -0.34 0.68 0 0 Z " fill="#D0BBA9" transform="translate(139,296)"/>
<path d="M0 0 C0.33 0.66 0.66 1.32 1 2 C-3.07593497 8.90511336 -7.79662759 13.94080517 -14 19 C-14 18.01 -14 17.02 -14 16 C-12.5390625 14.5703125 -12.5390625 14.5703125 -10.625 13.125 C-7.50225151 10.59557373 -6.36531971 8.80339063 -5 5 C-2.375 2.1875 -2.375 2.1875 0 0 Z " fill="#41332A" transform="translate(186,380)"/>
<path d="M0 0 C7.59 0 15.18 0 23 0 C24 3 24 3 23.3125 5.625 C22 8 22 8 19.875 8.8125 C19.25625 8.874375 18.6375 8.93625 18 9 C18 8.34 18 7.68 18 7 C18.66 7 19.32 7 20 7 C20.66 5.02 21.32 3.04 22 1 C14.74 1 7.48 1 0 1 C0 0.67 0 0.34 0 0 Z " fill="#503829" transform="translate(200,333)"/>
<path d="M0 0 C2.64 0 5.28 0 8 0 C8.33 3.3 8.66 6.6 9 10 C8.34 10 7.68 10 7 10 C6.54625 9.236875 6.0925 8.47375 5.625 7.6875 C3.9829082 4.9717328 2.52210243 3.82635004 0 2 C0 1.34 0 0.68 0 0 Z " fill="#F0E8D6" transform="translate(314,208)"/>
<path d="M0 0 C0.66 0 1.32 0 2 0 C2 0.66 2 1.32 2 2 C2.78375 2.061875 3.5675 2.12375 4.375 2.1875 C5.24125 2.455625 6.1075 2.72375 7 3 C8.3125 5.5625 8.3125 5.5625 9 8 C9.99 8 10.98 8 12 8 C12 8.99 12 9.98 12 11 C11.236875 10.690625 10.47375 10.38125 9.6875 10.0625 C7.81210323 9.32106407 5.91315348 8.63771783 4 8 C3.855625 7.360625 3.71125 6.72125 3.5625 6.0625 C3.19895007 3.79688294 3.19895007 3.79688294 0.9375 2.75 C0.298125 2.5025 -0.34125 2.255 -1 2 C-0.67 1.34 -0.34 0.68 0 0 Z " fill="#FDF3DF" transform="translate(335,165)"/>
<path d="M0 0 C1.45823212 -0.0270043 2.91660675 -0.04639787 4.375 -0.0625 C5.18710937 -0.07410156 5.99921875 -0.08570313 6.8359375 -0.09765625 C9 0 9 0 11 1 C12.49579604 1.20092783 13.99696724 1.36336066 15.5 1.5 C19.77777778 1.88888889 19.77777778 1.88888889 22 3 C22 4.65 22 6.3 22 8 C21.34 8 20.68 8 20 8 C19.56171875 7.53851563 19.1234375 7.07703125 18.671875 6.6015625 C14.17107287 2.29004644 6.00618849 1.65284657 0 1 C0 0.67 0 0.34 0 0 Z " fill="#E6D3BD" transform="translate(292,200)"/>
<path d="M0 0 C0.9583374 0.00523682 1.9166748 0.01047363 2.90405273 0.01586914 C4.45576172 0.02070313 4.45576172 0.02070313 6.03881836 0.02563477 C7.12743164 0.03401367 8.21604492 0.04239258 9.33764648 0.05102539 C10.97636719 0.05779297 10.97636719 0.05779297 12.64819336 0.06469727 C15.35723144 0.07652713 18.06616248 0.09300996 20.77514648 0.11352539 C20.77514648 0.44352539 20.77514648 0.77352539 20.77514648 1.11352539 C14.17514648 1.11352539 7.57514648 1.11352539 0.77514648 1.11352539 C1.10514648 3.09352539 1.43514648 5.07352539 1.77514648 7.11352539 C-0.16235352 6.36352539 -0.16235352 6.36352539 -2.22485352 5.11352539 C-3.03735352 3.05102539 -3.03735352 3.05102539 -3.22485352 1.11352539 C-2.22485352 0.11352539 -2.22485352 0.11352539 0 0 Z " fill="#C7AC97" transform="translate(123.224853515625,152.886474609375)"/>
<path d="M0 0 C0.66 0 1.32 0 2 0 C1.55232781 5.28253181 1.0107839 8.54403983 -2 13 C-2.69822617 14.65369357 -3.37498605 16.31727014 -4 18 C-4.33 18 -4.66 18 -5 18 C-5.25 12.375 -5.25 12.375 -3 9 C-2.34 9 -1.68 9 -1 9 C-1.020625 7.700625 -1.04125 6.40125 -1.0625 5.0625 C-1.08399454 3.70834367 -1.07148199 2.35243917 -1 1 C-0.67 0.67 -0.34 0.34 0 0 Z " fill="#E9DDC9" transform="translate(367,246)"/>
<path d="M0 0 C0.66 0.33 1.32 0.66 2 1 C1.21791649 3.79133871 0.38293093 6.44481903 -1 9 C-3.6875 10 -3.6875 10 -6 10 C-5.58578031 5.16743695 -3.53586014 3.17320782 0 0 Z " fill="#FCF8E9" transform="translate(159,405)"/>
<path d="M0 0 C0.99 0.33 1.98 0.66 3 1 C2.00641982 6.63028767 1.12019614 10.87980386 -3 15 C-2.01 10.05 -1.02 5.1 0 0 Z " fill="#FEF7E0" transform="translate(163,371)"/>
<path d="M0 0 C0.33 0 0.66 0 1 0 C0.32418477 6.08233706 -0.73638028 12.01314152 -2 18 C-4.31 18.66 -6.62 19.32 -9 20 C-7.625 18 -7.625 18 -6 16 C-5.34 16 -4.68 16 -4 16 C-2.68 10.72 -1.36 5.44 0 0 Z " fill="#D6C8B7" transform="translate(323,230)"/>
<path d="M0 0 C0.33 0.99 0.66 1.98 1 3 C-0.56048888 6.12097775 -2.29780559 8.76775245 -5 11 C-5.66 11 -6.32 11 -7 11 C-7 11.66 -7 12.32 -7 13 C-7.66 13 -8.32 13 -9 13 C-8.34 11.35 -7.68 9.7 -7 8 C-6.34 8 -5.68 8 -5 8 C-4.731875 7.236875 -4.46375 6.47375 -4.1875 5.6875 C-3.05575888 3.12619116 -2.08776599 1.80307062 0 0 Z " fill="#53463B" transform="translate(201,360)"/>
<path d="M0 0 C1 2 1 2 0.51171875 3.98828125 C0.23972656 4.75527344 -0.03226563 5.52226562 -0.3125 6.3125 C-0.73402344 7.51132812 -0.73402344 7.51132812 -1.1640625 8.734375 C-2.06484488 11.17574781 -2.99357584 13.60006547 -4 16 C-4.99 16 -5.98 16 -7 16 C-5.125 10.25 -5.125 10.25 -4 8 C-3.34 8 -2.68 8 -2 8 C-1.855625 6.865625 -1.71125 5.73125 -1.5625 4.5625 C-1 1 -1 1 0 0 Z " fill="#E1C8B2" transform="translate(150,396)"/>
<path d="M0 0 C0.33 0 0.66 0 1 0 C1 1.98 1 3.96 1 6 C-0.65 6.33 -2.3 6.66 -4 7 C-4 5 -4 5 -2.5625 3.5 C-2.046875 3.005 -1.53125 2.51 -1 2 C-0.67 1.34 -0.34 0.68 0 0 Z M-5 7 C-4.67 7.66 -4.34 8.32 -4 9 C-4.33 9.66 -4.66 10.32 -5 11 C-5.66 11 -6.32 11 -7 11 C-7 12.65 -7 14.3 -7 16 C-7.99 16 -8.98 16 -10 16 C-9.42647107 12.12867972 -7.51295648 9.91827204 -5 7 Z " fill="#FDF7EF" transform="translate(192,364)"/>
<path d="M0 0 C0.33 0 0.66 0 1 0 C1.1875 2.8125 1.1875 2.8125 1 6 C0.02149805 7.02104551 -0.97980427 8.0206121 -2 9 C-2.7269226 12.10839021 -2.7269226 12.10839021 -3 15 C-3.66 15 -4.32 15 -5 15 C-4.67 11.37 -4.34 7.74 -4 4 C-3.34 4 -2.68 4 -2 4 C-1.34 2.68 -0.68 1.36 0 0 Z " fill="#FBF9ED" transform="translate(365,249)"/>
<path d="M0 0 C0.83265381 0.00523682 1.66530762 0.01047363 2.52319336 0.01586914 C3.42231445 0.0190918 4.32143555 0.02231445 5.24780273 0.02563477 C6.66609375 0.03820312 6.66609375 0.03820312 8.11303711 0.05102539 C9.06243164 0.05553711 10.01182617 0.06004883 10.98999023 0.06469727 C13.34356776 0.07652429 15.69702188 0.09300514 18.05053711 0.11352539 C18.05053711 0.44352539 18.05053711 0.77352539 18.05053711 1.11352539 C12.11053711 1.44352539 6.17053711 1.77352539 0.05053711 2.11352539 C0.83360665 5.86043986 0.83360665 5.86043986 2.05053711 8.11352539 C0.11303711 7.42602539 0.11303711 7.42602539 -1.94946289 6.11352539 C-2.76196289 3.55102539 -2.76196289 3.55102539 -2.94946289 1.11352539 C-1.94946289 0.11352539 -1.94946289 0.11352539 0 0 Z " fill="#4D382A" transform="translate(120.949462890625,151.886474609375)"/>
<path d="M0 0 C0.103125 0.639375 0.20625 1.27875 0.3125 1.9375 C0.539375 2.618125 0.76625 3.29875 1 4 C1.99 4.33 2.98 4.66 4 5 C2.7934375 6.175625 2.7934375 6.175625 1.5625 7.375 C-0.98690417 9.71982856 -0.98690417 9.71982856 -2 12 C-2.66 12 -3.32 12 -4 12 C-3.25 6.25 -3.25 6.25 -1 4 C-0.3574765 1.93125966 -0.3574765 1.93125966 0 0 Z " fill="#B1805F" transform="translate(116,460)"/>
<path d="M0 0 C1.2065625 0.0309375 1.2065625 0.0309375 2.4375 0.0625 C0.37742341 3.66763403 -1.9138141 6.86581012 -4.5625 10.0625 C-4.42200482 8.58281676 -4.27495174 7.10375484 -4.125 5.625 C-4.04378906 4.80128906 -3.96257812 3.97757812 -3.87890625 3.12890625 C-3.4093501 0.06229881 -3.15462671 0.07694211 0 0 Z " fill="#EFE1CE" transform="translate(174.5625,389.9375)"/>
<path d="M0 0 C0 4.09202375 -0.64853457 5.60228912 -3.375 8.6875 C-6 11 -6 11 -9 11 C-8.525625 10.443125 -8.05125 9.88625 -7.5625 9.3125 C-5.81835753 7.09428518 -5.81835753 7.09428518 -5.625 4.375 C-5.41875 3.59125 -5.2125 2.8075 -5 2 C-2.4375 0.6875 -2.4375 0.6875 0 0 Z " fill="#A79485" transform="translate(211,348)"/>
<path d="M0 0 C2 3 2 3 1.625 5.6875 C1.41875 6.450625 1.2125 7.21375 1 8 C0.01 8.33 -0.98 8.66 -2 9 C-2.33 9.66 -2.66 10.32 -3 11 C-3.66 11 -4.32 11 -5 11 C-3.77472971 6.94718288 -2.30119506 3.55639236 0 0 Z " fill="#D2BEA6" transform="translate(130,317)"/>
<path d="M0 0 C1.11340257 3.34020772 1.24574643 5.67800951 0 9 C-3.0625 11.3125 -3.0625 11.3125 -6 13 C-5.1875 10.0625 -5.1875 10.0625 -4 7 C-3.01 6.67 -2.02 6.34 -1 6 C-1.020625 5.195625 -1.04125 4.39125 -1.0625 3.5625 C-1 1 -1 1 0 0 Z " fill="#B8A79B" transform="translate(158,258)"/>
<path d="M0 0 C1 2 1 2 0.4375 4.3125 C-1.47539467 7.88878134 -3.78248866 9.55189355 -7 12 C-6.21769326 8.08846628 -4.7529462 4.57331341 -3 1 C-2.01 0.67 -1.02 0.34 0 0 Z " fill="#BEA898" transform="translate(163,406)"/>
<path d="M0 0 C0.33 0 0.66 0 1 0 C1.05410687 1.77049689 1.09284119 3.54146849 1.125 5.3125 C1.14820313 6.29863281 1.17140625 7.28476563 1.1953125 8.30078125 C1 11 1 11 -1 14 C-2.51708428 4.58997722 -2.51708428 4.58997722 0 0 Z " fill="#F6E5D1" transform="translate(370,231)"/>
<path d="M0 0 C1.64826111 2.96687001 2.44271087 5.65626525 3 9 C1.35 9 -0.3 9 -2 9 C-2.25 3.375 -2.25 3.375 0 0 Z " fill="#EED9C5" transform="translate(109,362)"/>
<path d="M0 0 C1.60080151 4.00200378 0.29279692 7.04556236 -1 11 C-1.99 11 -2.98 11 -4 11 C-4.33 12.65 -4.66 14.3 -5 16 C-6.125 12.25 -6.125 12.25 -5 10 C-4.34 10 -3.68 10 -3 10 C-2.87625 8.906875 -2.7525 7.81375 -2.625 6.6875 C-2 3 -2 3 0 0 Z " fill="#B09E87" transform="translate(147,280)"/>
<path d="M0 0 C0.66 0.33 1.32 0.66 2 1 C2.6328125 3.06640625 2.6328125 3.06640625 3.125 5.5625 C3.29257812 6.38878906 3.46015625 7.21507812 3.6328125 8.06640625 C3.75398438 8.70449219 3.87515625 9.34257812 4 10 C2.68 10.33 1.36 10.66 0 11 C-1.28571429 3.57142857 -1.28571429 3.57142857 0 0 Z " fill="#E2D0BE" transform="translate(364,194)"/>
<path d="M0 0 C0.99 0.33 1.98 0.66 3 1 C3 1.66 3 2.32 3 3 C3.66 3 4.32 3 5 3 C5 4.32 5 5.64 5 7 C5.99 7 6.98 7 8 7 C8.33 7.99 8.66 8.98 9 10 C7.35 9.67 5.7 9.34 4 9 C3.896875 8.360625 3.79375 7.72125 3.6875 7.0625 C3.460625 6.381875 3.23375 5.70125 3 5 C2.01 4.67 1.02 4.34 0 4 C0 2.68 0 1.36 0 0 Z " fill="#FEEED8" transform="translate(143,176)"/>
<path d="M0 0 C2.475 0.99 2.475 0.99 5 2 C5 1.34 5 0.68 5 0 C5.66 0 6.32 0 7 0 C7.66 1.32 8.32 2.64 9 4 C8.01 5.485 8.01 5.485 7 7 C1.125 3.375 1.125 3.375 0 0 Z " fill="#DCCCB5" transform="translate(135,172)"/>
<path d="M0 0 C0.99 0.33 1.98 0.66 3 1 C1.02 3.31 -0.96 5.62 -3 8 C-3.66 6.68 -4.32 5.36 -5 4 C-4.34 4 -3.68 4 -3 4 C-3 3.34 -3 2.68 -3 2 C-2.01 1.34 -1.02 0.68 0 0 Z " fill="#F2E4D1" transform="translate(142,430)"/>
<path d="M0 0 C2.31 0 4.62 0 7 0 C6.67 0.66 6.34 1.32 6 2 C5.01 2 4.02 2 3 2 C3 2.66 3 3.32 3 4 C1.68 4 0.36 4 -1 4 C-1 4.66 -1 5.32 -1 6 C-2.32 5.67 -3.64 5.34 -5 5 C-3.35 4.34 -1.7 3.68 0 3 C0 2.01 0 1.02 0 0 Z " fill="#B8A195" transform="translate(325,294)"/>
<path d="M0 0 C0.33 0 0.66 0 1 0 C1.28125 2.23046875 1.28125 2.23046875 1 5 C-0.96875 7.23828125 -0.96875 7.23828125 -3.5 9.3125 C-4.3353125 10.00988281 -5.170625 10.70726562 -6.03125 11.42578125 C-6.6809375 11.94527344 -7.330625 12.46476562 -8 13 C-8 10 -8 10 -6.125 7.8125 C-4 6 -4 6 -2 6 C-1.34 4.02 -0.68 2.04 0 0 Z " fill="#55473D" transform="translate(361,266)"/>
<path d="M0 0 C2.69073827 2.69073827 3.00425593 4.05362475 3.3125 7.9375 C3.19284463 11.30674327 2.52190905 13.9561819 1 17 C0.67 17 0.34 17 0 17 C0.14168137 15.56208484 0.28851043 14.1246763 0.4375 12.6875 C0.51871094 11.88699219 0.59992188 11.08648437 0.68359375 10.26171875 C1 8 1 8 2 5 C1.34 5 0.68 5 0 5 C0 3.35 0 1.7 0 0 Z " fill="#FBF5EC" transform="translate(368,219)"/>
<path d="M0 0 C-0.33 1.32 -0.66 2.64 -1 4 C-4.63 4 -8.26 4 -12 4 C-8.74358283 0.74358283 -4.52301031 0 0 0 Z " fill="#DED3BF" transform="translate(314,250)"/>
<path d="M0 0 C3.48331435 3.01887244 4.79157144 5.56909529 6 10 C4.68 10 3.36 10 2 10 C0.68373308 6.38026598 0 3.90432869 0 0 Z " fill="#CCB5A3" transform="translate(358,184)"/>
<path d="M0 0 C0 0.66 0 1.32 0 2 C-1.95927063 3.7143618 -3.95880212 5.38405168 -6 7 C-6.6875 5.1875 -6.6875 5.1875 -7 3 C-4.8243318 -0.20624788 -4.07796486 0 0 0 Z " fill="#F5F3ED" transform="translate(359,265)"/>
<path d="M0 0 C3.3 0 6.6 0 10 0 C9.67 0.99 9.34 1.98 9 3 C6.36 3 3.72 3 1 3 C0.67 2.01 0.34 1.02 0 0 Z " fill="#FBF4E5" transform="translate(299,155)"/>
<path d="M0 0 C0.66 0.66 1.32 1.32 2 2 C1.625 5.125 1.625 5.125 1 8 C0.01 8.33 -0.98 8.66 -2 9 C-2 10.98 -2 12.96 -2 15 C-2.33 15 -2.66 15 -3 15 C-3.125 11.625 -3.125 11.625 -3 8 C-2.34 7.34 -1.68 6.68 -1 6 C-0.60235737 4.01178687 -0.26224651 2.01055661 0 0 Z " fill="#FBF2EB" transform="translate(185,320)"/>
<path d="M0 0 C1.38609004 3.15020465 0.89180331 4.31918022 -0.25 7.6875 C-2 11 -2 11 -5 12 C-3.85814266 7.52040582 -2.56984833 3.85477249 0 0 Z " fill="#4C3C30" transform="translate(367,254)"/>
<path d="M0 0 C0.33 1.32 0.66 2.64 1 4 C0.34 4 -0.32 4 -1 4 C-1.28875 4.94875 -1.5775 5.8975 -1.875 6.875 C-3 10 -3 10 -5 12 C-5.20149192 8.37314539 -4.95555061 6.08771148 -3 3 C-1.375 1.25 -1.375 1.25 0 0 Z " fill="#544034" transform="translate(147,400)"/>
<path d="M0 0 C0.5775 0.45375 1.155 0.9075 1.75 1.375 C3.7800333 2.84113516 5.73539843 3.94857784 8 5 C7.67 6.32 7.34 7.64 7 9 C6.01 8.34 5.02 7.68 4 7 C4 6.34 4 5.68 4 5 C3.34 5 2.68 5 2 5 C1.34 3.35 0.68 1.7 0 0 Z " fill="#AC967F" transform="translate(139,176)"/>
<path d="M0 0 C1 2 1 2 0.1875 4.875 C-0.75524181 7.3558995 -1.7442206 9.66783825 -3 12 C-3.66 12 -4.32 12 -5 12 C-3.68938409 7.76570244 -2.05643741 3.92592596 0 0 Z " fill="#A28A7D" transform="translate(117,344)"/>
<path d="M0 0 C2.1991413 4.39828259 2.51855059 7.18550592 3 12 C2.01 11.67 1.02 11.34 0 11 C0 7.37 0 3.74 0 0 Z " fill="#E3CDB8" transform="translate(368,204)"/>
<path d="M0 0 C0 3.63563409 -0.82542733 5.12645755 -3 8 C-4.32 8 -5.64 8 -7 8 C-6.67 6.35 -6.34 4.7 -6 3 C-5.67 3.99 -5.34 4.98 -5 6 C-4.34 6 -3.68 6 -3 6 C-2.690625 5.195625 -2.38125 4.39125 -2.0625 3.5625 C-1 1 -1 1 0 0 Z " fill="#462919" transform="translate(117,466)"/>
<path d="M0 0 C0.33 0 0.66 0 1 0 C0.67 3.3 0.34 6.6 0 10 C-0.99 9.67 -1.98 9.34 -3 9 C-2.01 6.03 -1.02 3.06 0 0 Z " fill="#F7DFB9" transform="translate(124,447)"/>
<path d="M0 0 C0.66 0.33 1.32 0.66 2 1 C1.5359375 1.8353125 1.5359375 1.8353125 1.0625 2.6875 C-0.05761821 5.12540433 -0.56037364 7.36224186 -1 10 C-1.66 9.67 -2.32 9.34 -3 9 C-2.5020163 5.26512223 -2.12508244 3.18762365 0 0 Z " fill="#F9EDDA" transform="translate(147,420)"/>
<path d="M0 0 C0.33 0 0.66 0 1 0 C0.38461538 6.52307692 0.38461538 6.52307692 -1.5625 8.9375 C-2.036875 9.288125 -2.51125 9.63875 -3 10 C-2.67 7.36 -2.34 4.72 -2 2 C-1.34 2 -0.68 2 0 2 C0 1.34 0 0.68 0 0 Z " fill="#FAECD5" transform="translate(127,326)"/>
<path d="M0 0 C1.65 0 3.3 0 5 0 C4 3 4 3 2 4 C0.00039988 4.039992 -2.00047242 4.04346799 -4 4 C-3.01 3.67 -2.02 3.34 -1 3 C-0.67 2.01 -0.34 1.02 0 0 Z " fill="#EBD7CB" transform="translate(332,290)"/>
<path d="M0 0 C0.33 0.66 0.66 1.32 1 2 C-1.17508418 6.69360269 -1.17508418 6.69360269 -4.1875 7.8125 C-4.785625 7.874375 -5.38375 7.93625 -6 8 C-4.55746343 4.63408134 -2.66735273 2.48952921 0 0 Z " fill="#503D35" transform="translate(186,380)"/>
<path d="M0 0 C1.10844919 3.32534757 0.84454356 5.62182575 0 9 C-1.32 9.33 -2.64 9.66 -4 10 C-2.66666667 6.66666667 -1.33333333 3.33333333 0 0 Z " fill="#DFCAAD" transform="translate(161,375)"/>
<path d="M0 0 C0.88336837 2.4667645 1.1312406 3.63859372 0.22265625 6.140625 C-0.16019531 6.83671875 -0.54304688 7.5328125 -0.9375 8.25 C-1.31777344 8.95640625 -1.69804688 9.6628125 -2.08984375 10.390625 C-2.39019531 10.92171875 -2.69054687 11.4528125 -3 12 C-3.66 11.67 -4.32 11.34 -5 11 C-4.34 10.01 -3.68 9.02 -3 8 C-2.31744011 5.67126625 -1.64949225 3.33817209 -1 1 C-0.67 0.67 -0.34 0.34 0 0 Z " fill="#F3E0D2" transform="translate(119,343)"/>
<path d="M0 0 C0.99 0.495 0.99 0.495 2 1 C2.625 4.0625 2.625 4.0625 3 7 C3.99 7 4.98 7 6 7 C6.33 8.32 6.66 9.64 7 11 C6.34 11 5.68 11 5 11 C5 10.01 5 9.02 5 8 C3.68 8 2.36 8 1 8 C0 2.25 0 2.25 0 0 Z " fill="#FBF4E5" transform="translate(155,187)"/>
<path d="M0 0 C0.33 0 0.66 0 1 0 C1 1.98 1 3.96 1 6 C0.34 6 -0.32 6 -1 6 C-1 6.66 -1 7.32 -1 8 C-1.99 8.33 -2.98 8.66 -4 9 C-2.80100302 5.9168649 -1.52299523 2.93720508 0 0 Z " fill="#A78D7A" transform="translate(137,420)"/>
<path d="M0 0 C0.99 0.33 1.98 0.66 3 1 C2.67 2.65 2.34 4.3 2 6 C1.01 6.33 0.02 6.66 -1 7 C-0.67 4.69 -0.34 2.38 0 0 Z " fill="#F5EEDA" transform="translate(163,371)"/>
<path d="M0 0 C0.66 0 1.32 0 2 0 C0.375 5.75 0.375 5.75 -3 8 C-3 6.35 -3 4.7 -3 3 C-2.01 3 -1.02 3 0 3 C0 2.01 0 1.02 0 0 Z " fill="#C7B6A8" transform="translate(215,340)"/>
<path d="M0 0 C0.33 0.66 0.66 1.32 1 2 C-0.30406884 4.01920337 -1.63823419 6.01924973 -3 8 C-3.33 8 -3.66 8 -4 8 C-4.25 5.6875 -4.25 5.6875 -4 3 C-2 1.1875 -2 1.1875 0 0 Z " fill="#FCF4EE" transform="translate(158,266)"/>
<path d="M0 0 C1.65 0 3.3 0 5 0 C5.33 0.99 5.66 1.98 6 3 C5.34 3.66 4.68 4.32 4 5 C2 3.625 2 3.625 0 2 C0 1.34 0 0.68 0 0 Z " fill="#CEC2AB" transform="translate(314,208)"/>
<path d="M0 0 C1.65 0 3.3 0 5 0 C5.33 2.31 5.66 4.62 6 7 C5.34 6.67 4.68 6.34 4 6 C4 5.34 4 4.68 4 4 C3.01 3.67 2.02 3.34 1 3 C0.67 2.01 0.34 1.02 0 0 Z " fill="#C2AE9D" transform="translate(125,160)"/>
<path d="M0 0 C0.66 0 1.32 0 2 0 C0.52307692 6.52307692 0.52307692 6.52307692 -2.125 8.9375 C-2.74375 9.288125 -3.3625 9.63875 -4 10 C-3.52449439 8.51965236 -3.04448784 7.04074979 -2.5625 5.5625 C-2.29566406 4.73878906 -2.02882812 3.91507812 -1.75390625 3.06640625 C-1 1 -1 1 0 0 Z " fill="#C0AA9E" transform="translate(180,383)"/>
<path d="M0 0 C0.66 0 1.32 0 2 0 C1.67 2.31 1.34 4.62 1 7 C0.01 7.33 -0.98 7.66 -2 8 C-1.47731534 5.23723823 -0.89130413 2.6739124 0 0 Z " fill="#FDF1E6" transform="translate(122,337)"/>
<path d="M0 0 C1.485 0.99 1.485 0.99 3 2 C3 2.99 3 3.98 3 5 C3.99 5.33 4.98 5.66 6 6 C5.67 6.66 5.34 7.32 5 8 C4.01 7.34 3.02 6.68 2 6 C2 5.34 2 4.68 2 4 C1.34 4 0.68 4 0 4 C0 2.68 0 1.36 0 0 Z " fill="#F7E2CA" transform="translate(352,178)"/>
</svg>
